<svg xmlns="http://www.w3.org/2000/svg" viewBox="0 0 179.14 145.62"><g style="isolation:isolate"><g id="Layer_2" data-name="Layer 2"><g id="Layer_1-2" data-name="Layer 1"><polygon points="150.76 78.94 153.39 77.38 153.39 70.58 150.76 72.09 150.76 78.94" style="fill:#5e3e35"/><polygon points="150.75 78.87 150.75 66.4 92.58 32.03 92.58 45.28 95.19 46.79 95.19 40.17 148.44 70.85 148.44 77.54 150.75 78.87" style="fill:#ba967d"/><path d="M93.62,144.52a10.31,10.31,0,0,0,9.32,0l73.94-42.68c2.58-1.5,2.59-3.91,0-5.39L136.38,73a10.33,10.33,0,0,0-9.33,0L53.12,115.73c-2.59,1.49-2.6,3.91,0,5.39Z" style="fill:#c8a986;opacity:0.6000000000000001;mix-blend-mode:multiply"/><path d="M93.62,143.44a10.31,10.31,0,0,0,9.32,0l73.94-42.68c2.58-1.49,3.41-6.27,0-7.83L136.38,72a10.33,10.33,0,0,0-9.33,0L53.12,112.21c-3.1,1.77-2.6,6.35,0,7.83Z" style="fill:#dfd1ba"/><path d="M93.62,141a10.31,10.31,0,0,0,9.32,0L176.88,98.3c2.58-1.5,2.59-3.91,0-5.39l-40.53-23.4a10.33,10.33,0,0,0-9.33,0L53.12,112.21c-2.59,1.5-2.6,3.91,0,5.39Z" style="fill:#fef9ee"/><polyline points="157.86 77.28 62.04 132.85 0 96.59 96.07 41.01" style="fill:#3d3012;opacity:0.4"/><polyline points="97.92 32.9 97.92 38.87 95.29 40.3 8.8 90.17 8.8 96.93 6.57 98.19 6.39 85.69 97.92 32.9" style="fill:#5e3e35"/><polygon points="150.76 78.94 153.39 77.38 153.39 70.58 150.76 72.09 150.76 78.94" style="fill:#5e3e35"/><polygon points="150.75 78.87 150.75 66.4 92.58 32.03 92.58 45.28 95.19 46.79 95.19 40.17 148.44 70.85 148.44 77.54 150.75 78.87" style="fill:#ba967d"/><polygon points="62.04 130.17 62.04 117.71 3.87 83.34 3.87 96.59 6.48 98.1 6.48 91.47 59.73 122.15 59.73 128.84 62.04 130.17" style="fill:#ba967d"/><polygon points="62.04 117.71 62.04 107.26 1.85 72.09 1.85 82.66 62.04 117.71" style="fill:#d4b190"/><polygon points="62.04 117.71 62.04 107.26 150.75 56.27 151.68 33.37 153.39 32.7 153.39 64.88 62.04 117.71" style="fill:#b4866d"/><polygon points="62.04 107.26 1.85 72.09 3.87 71.36 62.04 105.76 149.42 55.33 150.75 56.27 62.04 107.26" style="fill:#decaba"/><polygon points="62.04 105.76 62.04 100.34 3.87 66.83 3.87 71.36 62.04 105.76" style="fill:#e3e5ee"/><polygon points="130.31 60.67 72.08 27.22 3.87 66.83 62.04 100.34 130.31 60.67" style="fill:#bdc2d9"/><polygon points="62.04 105.76 130.31 66.36 130.31 60.67 62.04 100.34 62.04 105.76" style="fill:#a0a4b3"/><polygon points="150.75 56.27 151.68 33.37 95.75 0.83 95.75 24.26 150.75 56.27" style="fill:#d3ad8e"/><polygon points="149.42 55.33 130.31 66.36 130.31 60.67 149.42 49.98 149.42 55.33" style="fill:#c9cddf"/><polygon points="149.42 49.98 130.31 60.67 72.08 27.22 92.01 15.63 149.42 49.98" style="fill:#f5f2f0"/><path d="M113.66,41.88l11.85-6.83a1.83,1.83,0,0,1,1.84,0L142.81,44a1.85,1.85,0,0,1,.11,3.13l-12.26,7.06a1.84,1.84,0,0,1-2,.05l-15.05-9.14A1.84,1.84,0,0,1,113.66,41.88Z" style="fill:#cacddb"/><rect x="126.07" y="39.76" width="17.66" height="5.94" transform="translate(269.8 85.45) rotate(-180)" style="fill:#cacddb"/><rect x="112.74" y="37.79" width="9.33" height="5.58" transform="translate(234.81 81.16) rotate(-180)" style="fill:#cacddb"/><path d="M113.66,36.21l11.85-6.83a1.83,1.83,0,0,1,1.84,0l15.46,8.91a1.85,1.85,0,0,1,.11,3.13l-12.26,7.06a1.84,1.84,0,0,1-2,.05l-15.05-9.14A1.84,1.84,0,0,1,113.66,36.21Z" style="fill:#faf8f6"/><path d="M88.21,26.35l11.85-6.83a1.85,1.85,0,0,1,1.85,0l15.45,8.9a1.84,1.84,0,0,1,.11,3.13l-12.26,7.07a1.84,1.84,0,0,1-2,.05l-15-9.14A1.85,1.85,0,0,1,88.21,26.35Z" style="fill:#cacddb"/><rect x="100.62" y="24.23" width="17.66" height="5.94" transform="translate(218.91 54.39) rotate(-180)" style="fill:#cacddb"/><rect x="87.29" y="22.26" width="9.33" height="5.58" transform="translate(183.92 50.09) rotate(-180)" style="fill:#cacddb"/><path d="M88.21,20.68l11.85-6.83a1.85,1.85,0,0,1,1.85,0l15.45,8.91a1.84,1.84,0,0,1,.11,3.13L105.21,33a1.84,1.84,0,0,1-2,0l-15-9.14A1.85,1.85,0,0,1,88.21,20.68Z" style="fill:#faf8f6"/><polyline points="153.39 32.7 97.71 0 95.75 0.83" style="fill:#cacddb"/><polyline points="95.75 0.83 151.68 33.37 153.39 32.7" style="fill:#decaba"/><polyline points="153.39 64.88 153.39 70.85 150.76 72.28 64.27 122.15 64.27 128.91 62.04 130.17 62.04 117.71 153.39 64.88" style="fill:#5e3e35"/></g></g></g></svg>