<svg xmlns="http://www.w3.org/2000/svg" viewBox="0 0 21.55 30.38"><g data-name="Layer 2"><g data-name="Layer 1"><path fill="#d5c8b1" d="M3.04 25.06L0 23.32V5.45l3.04 1.74v17.87z"/><path fill="#c6b5a3" d="M12.45 19.61L3 25.06V7.19l9.45-5.45"/><path fill="#c6b5a3" d="M9.44 0L0 5.45l3.01 1.74 9.44-5.45L9.44 0z"/><path fill="#fff5f0" d="M9.79.2L.92 5.32l2.31 1.34 8.87-5.13L9.79.2z"/><path fill="#ffd065" d="M6.06 26.83l-3.04-1.74V7.22l3.04 1.74v17.87z"/><path fill="#fdbb56" d="M12.46 1.77L3.02 7.22l3.01 1.74 9.44-5.45-3.01-1.74z"/><path fill="#fff5f0" d="M12.81 1.97L3.94 7.09l2.31 1.34 8.87-5.12-2.31-1.34z"/><path fill="#bace61" d="M9.1 28.55l-3.04-1.74V8.94l3.04 1.74v17.87z"/><path fill="#bbbc53" d="M15.5 3.49L6.06 8.94l3.01 1.73 9.44-5.45-3.01-1.73z"/><path fill="#fff5f0" d="M15.85 3.69L6.98 8.81l2.31 1.33 8.87-5.12-2.31-1.33z"/><path fill="#bbbc53" d="M18.51 23.09l-9.45 5.46V10.68l9.45-5.46v17.87z"/><path fill="#5490cc" d="M21.55 24.92l-9.45 5.46V12.51l9.45-5.46v17.87z"/><path fill="#6eafe0" d="M12.14 30.38L9.1 28.64V10.77l3.04 1.74v17.87z"/><path fill="#5490cc" d="M18.54 5.32L9.1 10.77l3.01 1.73 9.44-5.45-3.01-1.73z"/><path fill="#fff5f0" d="M18.89 5.52l-8.87 5.12 2.31 1.33 8.87-5.12-2.31-1.33z"/></g></g></svg>