<svg xmlns="http://www.w3.org/2000/svg" viewBox="0 0 22.45 21.06"><defs><clipPath id="a"><path d="M14.19 2.68l-.08.32a.45.45 0 01.18-.24.94.94 0 011.07.09.56.56 0 01.24.57l.08-.28a.56.56 0 00-.24-.57.94.94 0 00-1.07-.09.45.45 0 00-.18.2z" fill="none"/></clipPath><clipPath id="b"><path data-name="SVGID" d="M15.56 3.45v-.07l.08-.28v.07z" fill="none"/></clipPath><clipPath id="c"><path data-name="SVGID" d="M15.41 3.63a.47.47 0 00.15-.18l.08-.28a.47.47 0 01-.15.18.94.94 0 01-1.07-.09.56.56 0 01-.24-.57l-.07.31a.56.56 0 00.24.57.94.94 0 001.06.06z" fill="none"/></clipPath></defs><g data-name="Layer 2"><g data-name="Layer 1"><path d="M21.37 18.62c-.73 1.22-3.43 2.22-3.76 2.32a1.34 1.34 0 01-1.12 0l-8.31-5a1.72 1.72 0 00-1.63-.1l-2.06 1a2 2 0 01-1.67 0L.25 15.48a.44.44 0 010-.8l4.6-2.16c.52-.24 4.55-.61 5-.29.02 0 12.25 5.18 11.52 6.39z" style="mix-blend-mode:multiply" fill="#231f20" opacity=".29"/><g style="isolation:isolate"><path d="M.89 6.93l1.55.9a2.56 2.56 0 002.32 0L14 2.52a.82.82 0 00.48-.68v8.29a.82.82 0 01-.49.68l-9.21 5.3a2.56 2.56 0 01-2.32 0l-1.55-.9a.82.82 0 01-.48-.67V6.25a.82.82 0 00.46.68z" fill="#717171"/><path d="M.9 5.58a.71.71 0 000 1.35l1.55.9a2.56 2.56 0 002.32 0L14 2.52a.71.71 0 000-1.35L12.43.28a2.56 2.56 0 00-2.32 0z" fill="#848484"/></g><path d="M16.56 5.41V3.7a.8.8 0 01-.46.66 2.46 2.46 0 01-2.24 0l-1-1.19.05 8.91 1 .57a2.46 2.46 0 002.24 0 .79.79 0 00.47-.65z" fill="#626464"/><path d="M12.85 3.17a2 2 0 001 1.19 2.36 2.36 0 002.24 0 .69.69 0 000-1.29 3 3 0 01-1-1.2z" fill="#848484"/><path d="M12.54.34L15 1.82a.48.48 0 01.19.21l.35.75-1.7-.28L12.41.75z" fill="#848484"/><path d="M10.65 5.63a.23.23 0 01.23 0 .7.7 0 01.32.55v6.38a.22.22 0 01-.09.21l-4.79 2.8a.22.22 0 00.09-.21L6.43 9a.7.7 0 00-.32-.55.23.23 0 00-.23 0z" fill="#4f5050"/><path d="M5.71 8.35c0-1.12.43-1.3.43-1.3l.27.26 1.1.15s.51.34.52.62-1.29-.62-1.43.7l-.18 6.57c0 .2-.14.28-.32.18a.7.7 0 01-.33-.53s-.08-6-.06-6.65zM10.62 5.92l-.15.76a1.84 1.84 0 01.36-.22c.26-.06.37.28.37.65V6.3a.77.77 0 00-.47-.76c-.55-.19-.11.38-.11.38zM3.22 3.81l-.59.79 3.51 2.45.56-.54-2.92-2.78-.56.08z" fill="#3d3e3e"/><path fill="#3d3e3e" d="M6.72 6.42l-.58.57-.01.13.28.31 1.13.17v-.24l-.82-.94z"/><path d="M10.69 5.57a15.52 15.52 0 00-4.61-3.2.62.62 0 00-.54.05L3.28 3.76a.19.19 0 000 .32 19.55 19.55 0 014.2 3.38z" fill="#565757"/><path d="M7.63 7.29a.45.45 0 00-.16.16.31.31 0 00.11.37L7.8 8a.31.31 0 00.37 0l2.16-1.27a.61.61 0 00.29-.39l.11-.34c0-.18 0-.51-.12-.43z" fill="#6b6c6c"/><g style="isolation:isolate"><path d="M7.19 3.22v.29L5.36 2.47v-.28z" fill="#cfcfce"/><path fill="#b2b2b2" d="M7.21 3.55L5.36 2.47 3.62 3.48l1.85 1.08 1.74-1.01z"/><path d="M4.81 2.33l.47-.27a.1.1 0 01.1 0l1.87 1.07a.1.1 0 00-.1 0l-.47.27s-.05.07 0 .09L4.79 2.42s-.01-.07.02-.09z" fill="#cfcfce"/><path d="M5.54 4.07a.31.31 0 00-.14.25v.37L7.29 3.6v-.38c0-.09-.07-.13-.14-.08l-.47.27a.08.08 0 000 .06l.47-.27h.07v.29l-1.74 1v-.22a.15.15 0 01.07-.12L6 3.89a.08.08 0 000-.06z" fill="#979797"/><path d="M4.14 2.72L6 3.8c-.67.39-.6.26-.6.88L3.54 3.61c0-.61-.06-.5.6-.89z" fill="#cfcfce"/></g><g style="isolation:isolate"><path d="M13.21 2.16l.74.43v.32l-.74-.43a.13.13 0 01-.08-.11v-.32a.13.13 0 00.08.11z" fill="#626464"/><path fill="#5b5b5b" d="M13.95 2.59v.32l.37-.22v-.32l-.37.22z"/><path d="M13.21 1.94a.11.11 0 000 .21l.74.43.37-.21-.74-.43a.41.41 0 00-.37 0z" fill="#717171"/></g><g clip-path="url(#a)"><path d="M14.19 2.68l-.08.32a.45.45 0 01.18-.24.94.94 0 011.07.09.56.56 0 01.24.57l.08-.28a.56.56 0 00-.24-.57.94.94 0 00-1.07-.09.45.45 0 00-.18.24z" fill="#687b7b"/></g><g clip-path="url(#b)"><path d="M14.19 2.68l-.08.32a.56.56 0 00.24.57.94.94 0 001.07.09.45.45 0 00.18-.24l.08-.28a.45.45 0 01-.18.24.94.94 0 01-1.07-.09.55.55 0 01-.24-.57z" fill="#b4c1c1"/></g><g clip-path="url(#c)"><path d="M14.19 2.68l-.08.32a.56.56 0 00.24.57.94.94 0 001.07.09.45.45 0 00.18-.24l.08-.28a.45.45 0 01-.18.24.94.94 0 01-1.07-.09.55.55 0 01-.24-.57z" fill="#b4c1c1"/></g><path d="M14.34 2.48c-.28.2-.25.56.06.81a.94.94 0 001.07.09c.28-.2.25-.56-.06-.81a.94.94 0 00-1.07-.09z" fill="#4f5050"/><path d="M13.93 2.29l-.07.07a1.09 1.09 0 00-.33.85 1.21 1.21 0 00.42.64A1.64 1.64 0 0015.8 4l.11-.09a1.16 1.16 0 00.2-.84V3c0 .16-.06.4-.22.52a1.5 1.5 0 01-1.77-.09 1 1 0 01-.33-.53c-.05-.16.21-.29.26-.44z" fill="#626464"/><path d="M15.72 2.33c.48.39.53 1 .09 1.27a1.47 1.47 0 01-1.67-.14c-.48-.39-.53-1-.09-1.27a1.47 1.47 0 011.67.14zm-.22 1a.49.49 0 00-.06-.81.94.94 0 00-1.07-.09c-.28.2-.25.56.06.81a.94.94 0 001.07.09z" fill="#717171"/><path d="M14.4 2.38c-.28.2-.25.56.06.81a.94.94 0 001.07.09c.28-.2.25-.56-.06-.81a.94.94 0 00-1.07-.09z" fill="#e0e1e0"/><path d="M2.62 7.93c-.86-.3.44-.7.53 5 .05 3.44.25 2.62.25 2.62s.33-5.31.32-6.31a1.41 1.41 0 01.81-1.34 2.62 2.62 0 01-1.91.03z" fill="#848484" opacity=".26"/><path d="M1.95 5.87a.64.64 0 000 1.22 2.32 2.32 0 002.05 0 .64.64 0 000-1.22 2.32 2.32 0 00-2.05 0z" fill="#89adad"/><g style="isolation:isolate"><path d="M1.84 5.82v.55a.58.58 0 00.34.48 1.82 1.82 0 001.66 0 .59.59 0 00.35-.48v-.55a.59.59 0 01-.35.48 1.82 1.82 0 01-1.66 0 .58.58 0 01-.34-.48z" fill="#626464"/><path d="M2.18 5.34a.51.51 0 000 1 1.82 1.82 0 001.66 0 .51.51 0 000-1 1.82 1.82 0 00-1.66 0z" fill="#717171"/></g><path d="M7 13.26a2.26 2.26 0 01-.3-1.2 5.63 5.63 0 012.59-4.42 2.33 2.33 0 011.15-.35h1.1l-.11.24-.32-.08a1.79 1.79 0 01.75 1.64 5.63 5.63 0 01-2.55 4.42 1.75 1.75 0 01-1.92.12v.3z" fill="#626464"/><path d="M7.68 10.61A7.13 7.13 0 018.83 8.8a5.26 5.26 0 011.3-1.09 2.09 2.09 0 012.11-.21l.65.47.29.1 4.44 2.6a2.09 2.09 0 00-2.11.21 5.26 5.26 0 00-1.3 1.12 7.14 7.14 0 00-1.15 1.81 5.59 5.59 0 00-.51 2.19 2.08 2.08 0 00.87 1.9l-4.6-2.71-.18-.19-.64-.26a2.08 2.08 0 01-.87-1.9 5.59 5.59 0 01.55-2.23z" fill="#787878"/><path d="M8.7 11.22a7.14 7.14 0 011.15-1.81 5.26 5.26 0 011.3-1.09 2.09 2.09 0 012.11-.21l.88.5a2.18 2.18 0 00-2 .27 5.26 5.26 0 00-1.3 1.12 7.14 7.14 0 00-1.14 1.78A5.59 5.59 0 009.18 14a2.08 2.08 0 00.87 1.9l-1-.56a2.08 2.08 0 01-.87-1.9 5.59 5.59 0 01.52-2.22z" fill="#5b5c5c"/><path d="M15.62 10.89a6.91 6.91 0 00-3 5.4c0 2 1.37 2.78 3 1.79a6.91 6.91 0 003-5.4c.04-1.99-1.32-2.79-3-1.79z" fill="#5c5c5c"/><path d="M13.48 18.29l-2.24-1.34a2.36 2.36 0 01-.71-1.88 6 6 0 01.52-2.35 7.55 7.55 0 011.17-1.9 5.42 5.42 0 011.33-1.15 2.09 2.09 0 012.16-.22l2.06 1.22a2.09 2.09 0 00-2.16.22A5.42 5.42 0 0014.3 12a7.56 7.56 0 00-1.17 1.9 6 6 0 00-.52 2.35 2.21 2.21 0 00.87 2.04z" fill="#969696"/><path d="M17.08 11.91a6.52 6.52 0 00-3 5.13c0 1.88 1.34 2.64 3 1.7a6.52 6.52 0 003-5.13c-.08-1.89-1.36-2.61-3-1.7z" fill="#3e3e3e"/><path d="M15 18.94l-1.4-.83a2 2 0 01-.69-1.78 5.59 5.59 0 01.51-2.23 7.15 7.15 0 011.15-1.81 5.26 5.26 0 011.3-1.09A2.09 2.09 0 0118 11l1.23.71a2.09 2.09 0 00-2.11.21A5.27 5.27 0 0015.78 13a7.15 7.15 0 00-1.15 1.81 5.59 5.59 0 00-.51 2.19 2.08 2.08 0 00.88 1.94z" fill="#787878"/><path d="M18.34 17.08c.08-.11 0-.46.13-.61A12.53 12.53 0 0020 13.1s-.55-1.54-1.13-1.79c.38.13 3.35 1.28 3.44 1.34a.48.48 0 01.15.43c0 .26-.23.28-.4.28l-.45-.07a.32.32 0 00-.29.25.34.34 0 00.07.27 2.23 2.23 0 01.58.74 2 2 0 01-.63 2.28 1.94 1.94 0 01-1.09.2.23.23 0 00-.19.12s-.14.26 0 .39l.84.62a.37.37 0 01.09.49 5.46 5.46 0 01-3 1.91h-.41l-.48-.13-2.26-1.34s1.61.54 3.5-2.01z" fill="#696e6e"/><path d="M18.24 17.06c.08-.11 0-.46.13-.61a12.54 12.54 0 001.52-3.37s-.55-1.54-1.13-1.79c.38.13 3.35 1.28 3.44 1.34a.48.48 0 01.15.43c0 .26-.23.28-.4.28l-.45-.07a.32.32 0 00-.29.25.34.34 0 00.07.27 2.23 2.23 0 01.58.74 2 2 0 01-.63 2.28 1.94 1.94 0 01-1.09.2.23.23 0 00-.19.12s-.14.26 0 .39l.84.62a.37.37 0 01.09.49 5.47 5.47 0 01-3 1.91 1.52 1.52 0 01-.41 0 .92.92 0 01-.45-.18l-2.29-1.23s1.62.48 3.51-2.07z" fill="#272828"/><path d="M17.11 12a6.52 6.52 0 00-3 5.12c0 1.88 1.34 2.64 3 1.7a6.52 6.52 0 003-5.12c-.03-1.91-1.37-2.7-3-1.7z" fill="#3e3e3e"/><path d="M17.13 12.28a6 6 0 00-2.7 4.72c0 1.72 1.22 2.42 2.72 1.55a6 6 0 002.7-4.68c0-1.76-1.22-2.45-2.72-1.59z" fill="#010101"/><path d="M16.94 12.51a5.35 5.35 0 00-2.43 4.2c0 1.55 1.1 2.17 2.44 1.39a5.35 5.35 0 002.43-4.2c-.01-1.54-1.1-2.17-2.44-1.39z" fill="#87d1d5"/><path d="M16.81 12.81a4.49 4.49 0 00-2 3.53c0 1.3.92 1.82 2.05 1.17a4.49 4.49 0 002-3.53c0-1.3-.92-1.82-2.05-1.17z" fill="#4d8e8c" opacity=".57"/><path d="M16.63 13.63a2.67 2.67 0 00-1.21 2.1c0 .77.55 1.08 1.22.7a2.67 2.67 0 001.21-2.1c0-.77-.55-1.08-1.22-.7z" fill="#336363" opacity=".57"/><path d="M14.73 14.82a7 7 0 01.42-.83c.39-.67 1.71-2.65 3.62-2.74a2.47 2.47 0 011.14.28l2.36 1.11c-.55-.22-2.17-.55-4.27 1.89a.57.57 0 01-.53.19l-1.28-.29a.3.3 0 00-.32.16.37.37 0 000 .38l.15.22a1.7 1.7 0 01.29.58 2.49 2.49 0 01-.5 2.23 3.5 3.5 0 01-.52.4.33.33 0 00-.11.31c0 .15 0 .23.17.3l.61.28a1.47 1.47 0 01.56.42c.38.55 1.06 1 .73.85l-2-1.13a1.81 1.81 0 01-.86-.89 4.86 4.86 0 01.34-3.72z" fill="#696e6e"/><path d="M14.59 14.76a7 7 0 01.42-.83c.39-.67 1.71-2.65 3.62-2.74a2.47 2.47 0 011.14.28l2.52 1.16c-.46-.22-2.33-.61-4.43 1.83a.57.57 0 01-.53.19l-1.28-.29a.3.3 0 00-.32.16.37.37 0 000 .38l.15.22a1.7 1.7 0 01.29.58 2.49 2.49 0 01-.5 2.3 3.51 3.51 0 01-.52.4.33.33 0 00-.11.31c0 .15 0 .23.17.3l.61.28a2.24 2.24 0 01.56.42c.35.34.66 1 1.69.87a1.69 1.69 0 01-.94 0l-2-1.18a1.71 1.71 0 01-.86-.87 4.86 4.86 0 01.32-3.77z" fill="#3d3e3e"/></g></g></svg>