<svg xmlns="http://www.w3.org/2000/svg" viewBox="0 0 38.45 35.75"><g data-name="Layer 2"><g data-name="Layer 1"><path fill="#70553d" d="M38.45 14.66l-4.01 2.29-.84.48-.18.1-3.57 2.04-.74.42-.1.05-4.98 2.85-11.65-7.09L0 8.28l4.42-2.54.54-.31.29-.17 3.73-2.14.02-.01.39-.22.02-.01.81-.47L14.34.05l.08-.05 24.03 14.66z"/><path d="M29.85 20a.45.45 0 01-.61.16L29 20 4.58 5.91a.45.45 0 01-.16-.16l.83-.47L29.69 19.4a.45.45 0 01.16.17v.06a.45.45 0 010 .37zM34.43 17.4a.45.45 0 01-.61.15l-.22-.13-16.81-10L9.55 3a.45.45 0 01-.16-.16l.81-.47 24.08 14.42a.45.45 0 01.15.61z" fill="#6b5137"/><path fill="#3d2f24" d="M24.03 22.89v12.86L0 21.87V8.28l9.61 5.84 2.77 1.68 11.65 7.09z"/><path fill="#281f16" d="M38.45 14.66v12.76l-14.42 8.33V22.89l4.98-2.85.1-.05.74-.42 3.57-2.04.18-.1.84-.48 4.01-2.29z"/><path fill="#7c8d8b" d="M9.61 14.12v3.54l2.77 1.57V15.8l-2.77-1.68z"/><path fill="#6b8388" d="M10.45 15.68v1.38l1.08.62v-1.34l-1.08-.66z"/><path fill="#c1a782" d="M15.47 2.63V16.4l11.92-6.88v-.83L15.47 2.63z"/><path fill="#a79070" d="M15.47 2.63L3.54 8.69v.83l11.93 6.88V2.63z"/><path fill="#dfc096" d="M27.39 8.69l-11.92 6.88L3.54 8.69l11.93-6.88 11.92 6.88z"/><path d="M26.19 8.69l-10.72 6.19L4.74 8.69 15.47 2.5zm-10.72 6.08L26 8.69 15.47 2.61 4.94 8.69z" fill="#623123"/><path fill="#623123" d="M6.17 7.92l1.33-.76 1.33.76-1.33.77-1.33-.77zM8.83 6.39l1.32-.77 1.33.77-1.33.77-1.32-.77zM11.48 4.86l1.33-.77 1.33.77-1.33.76-1.33-.76zM14.14 3.32l1.33-.76 1.33.76-1.33.77-1.33-.77zM6.17 9.46l1.33-.77 1.33.77-1.33.76-1.33-.76zM8.83 7.92l1.32-.76 1.33.76-1.33.77-1.32-.77zM11.48 6.39l1.33-.77 1.33.77-1.33.77-1.33-.77zM14.14 4.86l1.33-.77 1.33.77-1.33.76-1.33-.76zM8.83 9.46l1.32-.77 1.33.77-1.33.76-1.32-.76zM11.48 7.92l1.33-.76 1.33.76-1.33.77-1.33-.77zM14.14 6.39l1.33-.77 1.33.77-1.33.77-1.33-.77zM16.8 4.86l1.32-.77 1.33.77-1.33.76-1.32-.76zM8.83 10.99l1.32-.77 1.33.77-1.33.77-1.32-.77zM11.48 9.46l1.33-.77 1.33.77-1.33.76-1.33-.76zM14.14 7.92l1.33-.76 1.33.76-1.33.77-1.33-.77zM16.8 6.39l1.32-.77 1.33.77-1.33.77-1.32-.77zM11.48 10.99l1.33-.77 1.33.77-1.33.77-1.33-.77zM14.14 9.46l1.33-.77 1.33.77-1.33.76-1.33-.76zM16.8 7.92l1.32-.76 1.33.76-1.33.77-1.32-.77z"/><path fill="#623123" d="M19.45 6.39l1.33-.77 1.33.77-1.33.77-1.33-.77zM11.48 12.53l1.33-.77 1.33.77-1.33.76-1.33-.76zM14.14 10.99l1.33-.77 1.33.77-1.33.77-1.33-.77zM16.8 9.46l1.32-.77 1.33.77-1.33.76-1.32-.76zM19.45 7.92l1.33-.76 1.33.76-1.33.77-1.33-.77zM14.14 12.53l1.33-.77 1.33.77-1.33.76-1.33-.76zM16.8 10.99l1.32-.77 1.33.77-1.33.77-1.32-.77z"/><path fill="#623123" d="M19.45 9.46l1.33-.77 1.33.77-1.33.76-1.33-.76zM22.11 7.92l1.33-.76 1.32.76-1.32.77-1.33-.77zM14.14 14.06l1.33-.77 1.33.77-1.33.77-1.33-.77zM16.8 12.53l1.32-.77 1.33.77-1.33.76-1.32-.76zM19.45 10.99l1.33-.77 1.33.77-1.33.77-1.33-.77zM22.11 9.46l1.33-.77 1.32.77-1.32.76-1.33-.76z"/><path d="M33.11 14.62a.43.43 0 000-.35.43.43 0 000-.35.43.43 0 000-.35.43.43 0 000-.35.44.44 0 000-.22.6.6 0 00-.36-.57l-3.86-2.22a2 2 0 00-1.82 0L20.58 14a.6.6 0 00-.36.57.44.44 0 000 .22.43.43 0 000 .35.43.43 0 000 .35.43.43 0 000 .35.43.43 0 000 .35c-.1.24 0 .51.32.7l3.86 2.22a2 2 0 001.82 0l6.54-3.78c.36-.2.46-.47.35-.71z" fill="#ededee"/><path d="M27.67 10.54l-6.54 3.78-.08.07a.19.19 0 000 .3l.07.05L25 17h.09a.83.83 0 00.51 0h.11l6.54-3.78.08-.07a.19.19 0 000-.3l-.07-.05-3.86-2.22h-.09a.83.83 0 00-.51 0z" fill="#587892"/><path fill="#efebe5" d="M14.42 0L0 8.28v13.59l24.03 13.88 14.42-8.33V14.66L14.42 0z" opacity=".3"/></g></g></svg>