<svg xmlns="http://www.w3.org/2000/svg" viewBox="0 0 49.99 62.94"><g data-name="Layer 2"><g data-name="Layer 1"><g data-name="13"><path fill="#ededee" d="M1.51 28.86L49.08 1.55l.3 32.01L1.51 61.92V28.86z"/><path d="M15.74 25.33l-1.67 1v.15c.44-.23.45-.22.45.06v2.55c0 .28 0 .3-.45.58v.15l1.57-.91A3.32 3.32 0 0017.58 26c0-.87-.37-1.52-1.84-.67zm-.2 3.43c-.43.24-.54.24-.54-.16v-2.4c0-.26 0-.31.59-.63 1.08-.57 1.41-.12 1.41.73a2.62 2.62 0 01-1.46 2.46zM18 24.17c.44-.23.45-.22.45.06v2.55c0 .28 0 .3-.45.58v.15l1.41-.81v-.15c-.44.22-.45.22-.45-.06v-2.55c0-.28 0-.3.45-.58v-.15L18 24zM22.08 21.87a1.91 1.91 0 00-.92.33l-1.4.8v.15c.44-.23.45-.22.45.06v2.55c0 .28 0 .3-.45.58v.15l1.49-.86v-.15c-.52.27-.53.27-.53 0v-1l.29-.17a4.9 4.9 0 00.65-.44 2.07 2.07 0 00.83-1.48c-.01-.39-.18-.51-.41-.52zm-1 2.26c-.3.17-.37.21-.37 0v-1.31c0-.14.06-.22.38-.41.52-.3.84-.19.84.36a1.59 1.59 0 01-.84 1.35zM24.41 23.64a2.34 2.34 0 01-.54.26c-.11 0-.13-.06-.13-.31v-2.41c0-.28 0-.3.48-.6v-.15l-1.44.83v.15c.44-.23.45-.22.45.06V24c0 .28 0 .3-.45.58v.15l2.62-1.51.06-.94-.15.09a1.46 1.46 0 01-.9 1.27zM27.35 18.55a3.37 3.37 0 00-1.25 1.21 3.13 3.13 0 00-.43 1.58c0 .57.16.94.43 1.08s.7.09 1.25-.23A3.37 3.37 0 0028.6 21a3.13 3.13 0 00.4-1.6c0-.56-.16-.94-.43-1.08s-.67-.09-1.22.23zm0 3.46c-.9.52-1.11-.26-1.11-1a2.55 2.55 0 011.11-2.29c.9-.52 1.11.26 1.11 1A2.55 2.55 0 0127.35 22zM32.26 17.13l-.61 1.7-.6-1c-.2-.34-.41-.66-.59-1l-1 .59v.15c.44-.23.45-.22.45.06v2a4.66 4.66 0 010 .65c0 .23-.15.32-.41.49v.15l1.2-.69v-.15c-.33.16-.45.22-.48 0a3.74 3.74 0 010-.61v-2l1.3 2.21.14-.08 1.32-3.73v2.56c0 .28 0 .3-.45.58v.15l1.41-.81v-.15c-.44.22-.45.22-.45-.06V15.6c0-.28 0-.3.45-.59v-.15l-1 .59c-.27.55-.48 1.12-.68 1.68z" fill="#292825"/><path d="M36.87 16.17l-1.07-2.42-.37.22-.53 1.8-.54 1.82a.85.85 0 01-.47.62v.15L35 17.7v-.15l-.26.13c-.15.07-.17 0-.13-.13l.31-1.15 1.08-.65.34.77c.05.12 0 .19-.14.3L36 17v.15l1.29-.75v-.15c-.29.11-.29.13-.42-.08zm-1.89 0c.16-.6.34-1.19.49-1.72l.5 1.15z" fill="#292825"/><path fill="#7d7d7c" d="M5.81 37.6v.43l37.59-21.7v-.43L5.81 37.6zM5.81 39.5L43.4 17.8v-.43L5.81 39.07v.43zM5.81 40.97l37.59-21.7v-.43L5.81 40.54v.43zM5.81 42.44l37.59-21.7v-.44L5.81 42.01v.43zM11.83 40.43l25.55-14.75v-.43L11.83 40v.43zM15.27 39.92l18.68-10.79v-.43L15.27 39.49v.43z"/><path d="M47.92 2.18L1.3 29.1a.12.12 0 00-.06.09v31.17h.06l46.62-26.89a.12.12 0 00.06-.09V2.21s.02-.05-.06-.03zm-.06 31.21L1.36 60.24V29.18l46.5-26.85z" fill="#ebb758"/><path d="M1.69 59.77l45.84-26.46a.12.12 0 00.06-.09V2.82h-.06L1.69 29.26a.12.12 0 00-.06.09v30.4s.03.04.06.02zm.06-30.42L47.47 3v30.22L1.75 59.62z" fill="#ebb758"/><path d="M39 28.23a7.68 7.68 0 00-3.72 5.83c0 2 1.66 2.72 3.72 1.53a7.68 7.68 0 003.72-5.83c.05-2.03-1.62-2.76-3.72-1.53zm0 7.21c-2 1.14-3.57.48-3.57-1.47A7.37 7.37 0 0139 28.38c2-1.14 3.57-.48 3.57 1.47a7.38 7.38 0 01-3.57 5.6zm-2.53-2.07c0 1.38 1.13 1.85 2.53 1a5.23 5.23 0 002.53-4c0-1.38-1.13-1.85-2.53-1a5.23 5.23 0 00-2.48 4zm2.53-3.2c1-.56 1.76-.24 1.76.72A3.63 3.63 0 0139 33.65c-1 .56-1.76.24-1.76-.72A3.63 3.63 0 0139 30.17z" fill="#4e6f99" opacity=".7"/><path d="M12.18 46.57l-1.38 2.68a3 3 0 002.46 1.33l1.61-2.49a3 3 0 01-2.69-1.52zM8.08 48.94L9.46 50A14.74 14.74 0 017 54.19l-1.61-.63a14.43 14.43 0 002.69-4.62z" fill="#bc3736"/><path d="M12.83 46.09A5.86 5.86 0 0110 50.55c-1.56.9-2.83.37-2.83-1.19A5.86 5.86 0 0110 44.9c1.57-.9 2.83-.37 2.83 1.19z" fill="#ebb758"/><path d="M10 45.68a4.25 4.25 0 00-2 3.23c0 1.13.92 1.52 2 .87a4.25 4.25 0 002-3.23c.06-1.14-.86-1.55-2-.87zm0 3.77c-.95.55-1.72.22-1.72-.73A3.57 3.57 0 0110 46c.95-.55 1.72-.22 1.72.73A3.57 3.57 0 0110 49.44z" style="mix-blend-mode:multiply" fill="#ba893a" opacity=".4"/><path fill="#c7c6c5" d="M49.08 34.08l-.89-.52.02-32.01.89.52-.02 32.01z"/><path fill="#f4f4f4" d="M1.79 61.39l-.89-.52 47.29-27.31.89.52L1.79 61.39z"/><path fill="#c7c6c5" d="M.89 62.94L0 62.42l.01-34.08.89.52-.01 34.08z"/><path fill="#f4f4f4" d="M.9 28.86l-.89-.52L49.1 0l.89.52L.9 28.86z"/><path d="M.9 28.86L50 .52V34.6L.89 62.94zm48.18 5.22v-32L1.81 29.38v32L27.23 46.7l21.85-12.62z" fill="#dcdbdb"/></g></g></g></svg>