<svg xmlns="http://www.w3.org/2000/svg" viewBox="0 0 58.61 118.83"><g data-name="Layer 2"><g data-name="Layer 1"><circle cx="14.94" cy="90.74" r="1.44" fill="#060606"/><circle cx="11.56" cy="105.3" r="1.44" fill="#060606"/><circle cx="34.72" cy="111.99" r="1.44" fill="#060606"/><circle cx="52.1" cy="101.66" r="1.44" fill="#060606"/><circle cx="41.43" cy="87.66" r="1.44" fill="#060606"/><path fill="#060606" d="M42.97 86.54v-1.98l-2.66 1.2-10.03 9.33L15.75 88l-2.11-.76v1.98l12.28 8.39-16.17 3.81v1.98l1.36 1.54 17.61-4.15 4.54 10.66 2.95-.27v-1.98l-1.39-8.97 18.97.8.47-1.7v-1.98l-18.48-.64 7.19-10.17z"/><path fill="#878787" d="M42.97 84.56l-2.66-.78-10.03 9.33-14.53-7.09-2.11 1.22 12.28 8.39-16.17 5.79 1.36 1.54 17.61-4.15 4.54 10.66 2.95-.27-1.39-10.95 18.97.81.47-1.71-18.48-2.62 7.19-10.17z"/><path d="M33 94.94a1.2 1.2 0 010 2.27 4.34 4.34 0 01-3.93 0 1.2 1.2 0 010-2.27 4.34 4.34 0 013.93 0z" fill="#060606"/><path fill="#060606" d="M28.3 78.19h5.56v17.89H28.3zM12.41 116.62v.3a1.88 1.88 0 00.9 1.19 5.18 5.18 0 004.7.17l7.5-4a1.56 1.56 0 001-1.42 7.06 7.06 0 00-.18-1.45 9.56 9.56 0 00-.77-2.45 12 12 0 00-.56-1.12c-.23-.4-.48-.78-.73-1.14l-5.43.31a2.64 2.64 0 00-.68 1.3L18 109a2.3 2.3 0 01-.84 1.52C15 112 13.1 114 12.57 115.69a2.85 2.85 0 00-.16.93z"/><path d="M12.28 117c.05.17 0 0 0 0a1.85 1.85 0 00.9 1.21 5.29 5.29 0 004.79.17l7.65-4c1.18-.65 1.05-1.46 1.05-1.46a3.8 3.8 0 00-.37-1.56c.24.64-2.39 1.61-3.52 2.58a19.43 19.43 0 01-5.31 3.25 7 7 0 01-2.26.58 2.88 2.88 0 01-2.15-.72 1.51 1.51 0 01-.46-1.39 2.16 2.16 0 00-.32 1.34zM13.82 79.51l6.57 4 5.1-3 18.76-10.9a5.22 5.22 0 002.58-4.16l.65-9.4c-6.16 3.28-13.6 6.2-19.9 9.37a49.62 49.62 0 00-8.67 5.3c-3.19 2.58-5.18 5.43-5.09 8.79z" fill="#060606"/><path d="M26.18 108.22c0-8.45-.3-27.32-.82-28.27a9.17 9.17 0 00-2.63-3c-1.45-1-3.14-1.81-4.84-1.48a5.07 5.07 0 00-4.06 4.06c-.35 2.06 2.93 27.58 3.3 28.76s3.33.26 4.52.61z" fill="#060606"/><path d="M17.14 108.32a2.21 2.21 0 00.86 1.25 3.09 3.09 0 00.36.26 3.74 3.74 0 00.48.26 3.87 3.87 0 00.51.21 7.18 7.18 0 005.43-.23 3.33 3.33 0 00.78-.55 1.82 1.82 0 00.62-1.3 2.29 2.29 0 00-1.26-1.86 7.09 7.09 0 00-6.42-.24c-1.09.57-1.5 1.39-1.36 2.2zM.16 109.46v.3a1.88 1.88 0 00.9 1.19 5.18 5.18 0 004.7.17l7.5-4a1.56 1.56 0 001-1.42 7.06 7.06 0 00-.18-1.45 9.58 9.58 0 00-.77-2.45 12.05 12.05 0 00-.56-1.12c-.23-.4-.48-.78-.73-1.14l-5.43.31a2.64 2.64 0 00-.68 1.3l-.16.7a2.3 2.3 0 01-.84 1.52C2.73 104.82.84 106.79.3 108.5a2.85 2.85 0 00-.14.96z" fill="#060606"/><path d="M0 109.8c.05.17 0 0 0 0a1.86 1.86 0 00.94 1.2 5.29 5.29 0 004.79.17l7.65-4c1.18-.65 1.05-1.46 1.05-1.46a3.8 3.8 0 00-.37-1.56c.24.64-2.39 1.61-3.52 2.58A19.44 19.44 0 015.23 110a7 7 0 01-2.26.59 2.88 2.88 0 01-2.15-.72 1.51 1.51 0 01-.46-1.39A2.16 2.16 0 000 109.8zM1.47 72.42l6.56 4L32.4 63.61c1.5-.87 2-3.51 2.08-5.25l-.63-7.91C20.08 57.77.68 62.87 1.47 72.42z" fill="#060606"/><path d="M13.83 101.13c0-8.45-.3-27.32-.82-28.27a9.17 9.17 0 00-2.63-3c-1.45-1-3.14-1.81-4.84-1.48a5.07 5.07 0 00-4.06 4.06c-.35 2.06 2.94 27.79 3.31 29s3.32 0 4.51.4z" fill="#060606"/><path d="M6.13 99.12c-1.81 1-1.88 2.62-.14 3.71a7.1 7.1 0 006.42.24c1.81-1 1.88-2.62.14-3.71a7.1 7.1 0 00-6.42-.24z" fill="#060606"/><path d="M18.91 70.72a49.62 49.62 0 018.67-5.3c-1.92-.89-2.87-1.87-3.37-4.54a8.64 8.64 0 01-.56 4.67c-.87 2.09-4.03 3.05-4.74 5.17z" fill="#1d1d1b" opacity=".2"/><path d="M30.87 61.38L8.9 74.07c-1 .59-1.84.11-1.84-1.06a9.38 9.38 0 014.24-7.41l19.57-11.3c1-.59 1.84-.11 1.84 1.06v2.84a4.06 4.06 0 01-1.84 3.18z" fill="#4b4b4a"/><path d="M38.54 14.47l-1.12 7.48-4.48 29.73a3.31 3.31 0 01-.28.88A3.24 3.24 0 0131.45 54l-3 1.76a1.08 1.08 0 01-1 .13 1.24 1.24 0 01-.47-1.36l.52-3.33 4.94-32 .38-2.49a3.25 3.25 0 011.72-2.38l2.82-1.13a.91.91 0 01.88 0 1.26 1.26 0 01.3 1.27zM27.57 85.73L7.43 74.06l24.66-19.93 20.22 11.69-24.74 19.91z" fill="#4b4b4a"/><path fill="#4b4b4a" d="M58.01 24.66L38.16 13.17 27.33 55.82l19.95 11.52 10.73-42.68z"/><path d="M50.91 73l-22 12.69c-1 .59-1.84.11-1.84-1.06a9.39 9.39 0 014.24-7.41l19.57-11.3c1-.59 1.84-.11 1.84 1.06v2.84A4.06 4.06 0 0150.91 73z" fill="#060606"/><path d="M47 66.08l5.83-37.85a3.26 3.26 0 011.72-2.38l2.82-1.13c.85-.34 1.42.26 1.26 1.33L53 63.26a3.39 3.39 0 01-1.49 2.28l-3 1.76c-1.02.55-1.73-.04-1.51-1.22z" fill="#1d1d1b"/><path d="M11.65 61.53v1.35l-.59.34c-1.54.89-2.78.17-2.78-1.61v-8.34a6.17 6.17 0 012.78-4.83l13.88-8c1.54-.89 2.78-.17 2.78 1.6v.68l-1.17.68v-.68c0-1-.72-1.44-1.61-.93l-13.88 8a3.58 3.58 0 00-1.61 2.8v8.35c0 1 .72 1.44 1.61.93z" fill="#4b4b4a"/><path fill="#4b4b4a" d="M12.48 65.37l-3.46-2V51.46l1.39-1.99 16.43-9.26 3.48 1.99-15.55 8.24-2.25 3.33-.04 11.6z"/><path d="M28.32 43.73l-.59.34-1.17.68v6.33a3.58 3.58 0 01-1.61 2.79l-12.12 7v2c0 1 .72 1.44 1.62.93l13.88-8a3.56 3.56 0 001.6-2.8v-8.34c0-1.02-.72-1.45-1.61-.93z" fill="#4b4b4a"/><path d="M28.32 42.37l-.59.34-1.17.68-12.11 7a6.17 6.17 0 00-2.79 4.83v8.35c0 1.77 1.25 2.49 2.79 1.61l13.88-8a6.16 6.16 0 002.79-4.82V44c-.01-1.79-1.27-2.51-2.8-1.63zM29.93 53a3.56 3.56 0 01-1.61 2.79l-13.88 8c-.89.51-1.62.1-1.62-.93v-8.32a3.57 3.57 0 011.62-2.8l12.11-7 1.17-.68.59-.34c.89-.51 1.61-.09 1.61.93z" fill="#1d1d1b"/><path d="M13.77 40.05c.23-5.69.73-7.49 1.29-13.22.64-6.51 7.75-9.49 9.29-3 .27 4.64-1.12 11.59-2.14 18.64a24.44 24.44 0 01-6 7.52l-5.37-6.74c1.05-1.13 1.95-2.08 2.93-3.2z" fill="#ededee"/><path d="M20.33 62.59c4.71 4.53 18.76 7.09 24.29 1.26 1.15-1.21.53-2.36.4-5.32q-.33-4.72-.67-8.67a175.87 175.87 0 00-2.6-20.12c-.13-.65-.07-.87-.19-1.27-3.14-2.6-6.64-5.85-10.8-7.56-5.48-1.37-7.63-.58-10.33-1-10.8-1.91-1.63 41.19-.1 42.68z" fill="#e0e1e2"/><path d="M35 75.08v1.35l-.59.34c-1.54.89-2.78.17-2.78-1.6v-8.35A6.17 6.17 0 0134.44 62l13.88-8c1.54-.89 2.78-.17 2.78 1.6v.68l-1.17.68v-.68c0-1-.72-1.44-1.61-.93l-13.88 8a3.58 3.58 0 00-1.61 2.8v8.35c0 1 .72 1.44 1.61.93z" fill="#4b4b4a"/><path fill="#4b4b4a" d="M35.86 78.84l-3.46-2V64.93l1.39-1.99 16.26-9.27 3.65 2-15.55 8.24-2.25 3.33-.04 11.6z"/><path d="M51.7 57.2l-.59.34-1.17.68v6.32a3.58 3.58 0 01-1.61 2.79l-12.12 7v2c0 1 .72 1.44 1.62.93l13.88-8a3.56 3.56 0 001.61-2.79v-8.34c-.01-1.03-.73-1.45-1.62-.93z" fill="#4b4b4a"/><path d="M51.7 55.84l-.59.34-1.17.68-12.12 7A6.17 6.17 0 0035 68.68V77c0 1.77 1.25 2.49 2.79 1.6l13.88-8a6.16 6.16 0 002.79-4.82v-8.33c.03-1.77-1.23-2.45-2.76-1.61zm1.61 10.64a3.56 3.56 0 01-1.61 2.79l-13.88 8c-.89.51-1.62.1-1.62-.93V68a3.57 3.57 0 011.62-2.8l12.12-7 1.17-.68.59-.34c.89-.51 1.61-.09 1.61.93z" fill="#1d1d1b"/><path d="M16.92 17.38l-1-.26a2.24 2.24 0 01-1.43-1.76 7.06 7.06 0 011.69-6.16 2.24 2.24 0 012.13-.79l1 .26z" fill="#3d3d3c"/><path d="M20.74 10.43c-.51-2-2.11-2.41-3.56-1a7.06 7.06 0 00-1.69 6.16c.51 2 2.11 2.41 3.56 1a7.06 7.06 0 001.69-6.16zM14.68 6.41a7.13 7.13 0 011.84-4.63A6.74 6.74 0 0122.46.09a6.89 6.89 0 014 2C23.92 1.14 17.92.66 16.84 4z" fill="#717070"/><path d="M22.52 25.61a2.91 2.91 0 001.4.8 7.3 7.3 0 006.41-1.61c1.51-1.47 1.1-3.12-.93-3.7a5.56 5.56 0 00-1.48-.2 7.33 7.33 0 00-.84 0A7.21 7.21 0 0023 22.71a2.81 2.81 0 00-.89 1.52 1.62 1.62 0 00.41 1.38z" fill="#ce9779"/><path fill="#ce9779" d="M19.18 13.17l9.06-2.28 2.95 11.72-9.06 2.28z"/><path d="M27.7 20.9a5.82 5.82 0 01-2.19 3.15 4.84 4.84 0 01-2 1 2.14 2.14 0 01-1.31-.11l-.44-1.62a2.81 2.81 0 01.91-.49 4.2 4.2 0 00.91-.51.51.51 0 00.15-.11 8.68 8.68 0 003-7.6c.74 1.67 1.46 4.39.97 6.29z" fill="#1d1d1b" opacity=".1"/><path d="M26.89 11.94a23.25 23.25 0 01.54 4 7.79 7.79 0 01-.83 3.88 5.92 5.92 0 01-4.8 3 3.26 3.26 0 01-1.39-.19 4.15 4.15 0 01-1.84-1.91 32.8 32.8 0 01-3.69-10.66 6.63 6.63 0 01-.16-1.67 4.51 4.51 0 013-3.66 8.87 8.87 0 014.91-.2A4.22 4.22 0 0123.9 5c.38.22.69.53 1 .78s1.6 4.22 1.99 6.16z" fill="#ce9779"/><path d="M16.4 16.26c.29.93.62 1.84 1 2.73a26 26 0 001.53 3.11 4.16 4.16 0 001.82 1.9 3.14 3.14 0 001.2.19h.15a5.92 5.92 0 004.83-3l.11-.22a7.4 7.4 0 00.7-2.71v-1c0-.36 0-.59-.05-.89a24.45 24.45 0 00-.37-2.5c0-.2-.07-.39-.11-.58l-.17-.81c0-.12-.05-.24-.09-.36s-.12-.51-.19-.78a.56.56 0 000-.11 1.1 1.1 0 00-.06-.22v-.12a20.2 20.2 0 00-1.22-3.6.68.68 0 00-.15-.21c-.36-.24-.67-.55-1.05-.77a2.54 2.54 0 00-.28-.1 5.06 5.06 0 00-1-.29 8.87 8.87 0 00-4.91.2 4.58 4.58 0 00-2.94 3.32 2.12 2.12 0 000 .34 5.59 5.59 0 00.09 1.28c0 .13 0 .26.07.39s0 .06 0 .09l.08.43c.11.55.23 1.11.36 1.65.13.89.37 1.78.65 2.64z" fill="#ce9779"/><path d="M31.15 11.82c.12 1.1.22 2.2.28 3.31 0 .87-3.78 2.11-3.91 1.34a17.68 17.68 0 01-.32-3v-1.34c-.13.11-.33.31-.53.51s-.59.56-.63.52-.04-.16-.12-.46v-.11a21.6 21.6 0 00-.26-1c0-.21-.09-.41-.14-.6-.1-.43-.19-.81-.26-1a1.5 1.5 0 00-.26-.68.86.86 0 00-.58-.26 1.46 1.46 0 00-.4 0 1.32 1.32 0 00-.28.07 5.13 5.13 0 00-1.13.74 10.26 10.26 0 01-2.31 1.32 10.42 10.42 0 01-3.83.79 5.71 5.71 0 01-2.09-.34 3.31 3.31 0 01-.51-.25l-.1-.07a2.3 2.3 0 01-.7-.71 2.13 2.13 0 01-.25-.62 6.68 6.68 0 01-.06-1.16A6.09 6.09 0 0114.88 5a10.26 10.26 0 014.19-2.08 12.76 12.76 0 015.76-.3 7.94 7.94 0 014.42 2.74 6.12 6.12 0 01.67 1 8.33 8.33 0 01.45 1.09v.09a21 21 0 01.78 4.28z" fill="#010101"/><path d="M27.34 11.08a1.26 1.26 0 00-.94 1 5 5 0 000 1.76A4.62 4.62 0 0027 16a.88.88 0 00.47.38.83.83 0 00.84-.37 1.83 1.83 0 00.25-.88 11.88 11.88 0 000-2.61 2.23 2.23 0 00-.3-1 1 1 0 00-.92-.44z" fill="#ce9779"/><path d="M28.73 18.55l-1-.26a2.24 2.24 0 01-1.43-1.76 7.06 7.06 0 011.7-6.16 2.24 2.24 0 012.13-.79l1 .26z" fill="#3d3d3c"/><path d="M32.55 11.61c-.51-2-2.11-2.41-3.55-1a7.06 7.06 0 00-1.69 6.16c.51 2 2.11 2.41 3.55 1a7.06 7.06 0 001.69-6.16z" fill="#717070"/><path d="M31.05 10.69a1.86 1.86 0 00-1.73.64 5.76 5.76 0 00-1.38 5 1.86 1.86 0 001.12 1.42 1.87 1.87 0 001.78-.63 5.76 5.76 0 001.38-5 1.86 1.86 0 00-1.11-1.42z" fill="#ededee"/><path d="M31.05 10.69a1.86 1.86 0 00-1.73.64 5.76 5.76 0 00-1.38 5 1.86 1.86 0 001.12 1.42 3.46 3.46 0 004.29-2.64 3.44 3.44 0 00-2.24-4.43z" fill="#939598"/><path d="M33.49 13.58a.88.88 0 00-1.61-.44 3.19 3.19 0 00-.76 2.78.88.88 0 001.61.44 3.19 3.19 0 00.76-2.78zM19.21 1.74a8.05 8.05 0 013.05-.09c3 .39 5.2 3.56 6.19 8.11.09.43.26.6.69.51l.49-.21a.53.53 0 00.23-.19.84.84 0 00.08-.64 14 14 0 00-3.44-7.14 6.64 6.64 0 00-7.29-.35z" fill="#717070"/><path fill="#010101" d="M14.18 8.93l.72 3.54"/></g></g></svg>