<svg xmlns="http://www.w3.org/2000/svg" viewBox="0 0 48.15 42.01"><g data-name="Layer 2"><g data-name="Layer 1"><path d="M8.37 20.77c1.76-2.43 3.05-4 4.2-5.35l4.1-3.81 1.28 10.54a39 39 0 01-5.18 3.52c-2.77.7-5.91-2.04-4.4-4.9z" fill="#ededee"/><path d="M11.86 23.94a1.25 1.25 0 01-.28.58l-1.08 1-.29.26-2.47 2.1-4.32-3.57 3.85-1.8L9 21.46c.76-.32 3.11 1.12 2.86 2.48z" fill="#ce9779"/><path d="M5.09 25l-3.2 1.81L1.3 29a1.34 1.34 0 01-.42.62 1 1 0 01-.38.18.46.46 0 01-.5-.4 1.05 1.05 0 010-.22A1.56 1.56 0 010 29l.73-2.93s2.54-1.75 2.78-1.81a4.83 4.83 0 011.37.65l.2.11z" fill="#ce9779"/><path d="M4.21 25.11l-2.45 1.6-.59 2.1c-.08.2-.17.5-.29.76a1 1 0 01-.38.18.46.46 0 01-.5-.35 1.05 1.05 0 010-.22 6.25 6.25 0 001.12-2.61z" fill="#ce9779"/><path d="M6.1 25.77l-1.1.69-2.57 1.65-1 2a1.19 1.19 0 01-1 .67.51.51 0 01-.35-.24A.85.85 0 01.1 30l1.26-3s3.18-2.15 3.43-2.17 1.31.94 1.31.94z" fill="#ce9779"/><path d="M5.64 25.77l-.63.7-2.58 1.64-1 2a1.19 1.19 0 01-1 .67.51.51 0 01-.35-.24c.6 0 1.67-1.53 2-2.77z" fill="#ce9779"/><path d="M7.34 26.51l-1.78 1.25-2.39 1.67-1.38 1.87a1.19 1.19 0 01-1.09.45l-.1-.05a.47.47 0 01-.14-.14.71.71 0 01.06-.7l1.85-2.68a36.9 36.9 0 013.56-2.56 8.86 8.86 0 011.41.89z" fill="#ce9779"/><path d="M6.55 26.69l-1 1.07-2.38 1.67-1.38 1.87a1.19 1.19 0 01-1.09.45l-.1-.05-.14-.14C1 31.83 2.67 30.31 3 29z" fill="#ce9779"/><path d="M8.26 27.57L5 30.07l-1.16 2a1.19 1.19 0 01-1 .57.51.51 0 01-.3-.23.78.78 0 010-.65l1.54-2.87a31 31 0 013-2.59c.17 0 .65.58.95.95z" fill="#ce9779"/><path d="M8.26 27.57L5 30.07l-1.16 2a1.19 1.19 0 01-1 .57.51.51 0 01-.3-.23c.62.06 1.92-1.42 2.24-2.69L8 27.27z" fill="#ce9779"/><path d="M10.54 25v.51A6.74 6.74 0 0110 28a8.73 8.73 0 01-1.28 1.61 7.4 7.4 0 00-1.13 1.82 1.15 1.15 0 01-.47.64.55.55 0 01-.4 0 .77.77 0 01-.44-.36 1.34 1.34 0 010-1c.28-1.05 1.18-1.88 1.46-2.92a2.46 2.46 0 00.05-.25 9.4 9.4 0 01.13-1A2 2 0 019 25.41a4.29 4.29 0 011.16-.41z" fill="#ce9779"/><path d="M11.86 23.94a1.25 1.25 0 01-.28.58l-1.08 1A6.74 6.74 0 0110 28a8.73 8.73 0 01-1.28 1.61 7.4 7.4 0 00-1.13 1.82 1.15 1.15 0 01-.47.64.55.55 0 01-.4 0 2 2 0 00.4-.48c.24-.39.38-.84.61-1.23a18.24 18.24 0 011.44-1.77 5 5 0 001-2.92 4.83 4.83 0 00-.14-1.25 2.56 2.56 0 00.84.13z" fill="#ce9779"/><path d="M27.58 30.7A93.47 93.47 0 0139 20.38c-1-3.88-1.49-9.29-1.58-15.09 0-6.16 6.56-7.51 8.09-1 1.22 4.48 1.78 11.41 2.64 18.85-2.28 5-7.95 8.86-15.74 12-2.74.67-5.76-1.58-4.83-4.44z" fill="#ededee"/><path d="M16.94 39.32a.91.91 0 001.25-.13l1.37-1.85 2.58-2.17.14-.12-1.47-1-2.24 1.81-1.78 3a.45.45 0 00.15.46z" fill="#ce9779"/><path d="M16.94 39.32a.91.91 0 001.25-.13l1.37-1.85 2.58-2.17-.14-.11-2.59 1.41c-.74 1.37-1.47 2.82-2.47 2.85z" fill="#ce9779" opacity=".1"/><path d="M18 40.48a.92.92 0 001.2-.17l1.37-1.85 2.72-2.29-1.2-1.23-2.51 2-1.78 3a.47.47 0 00.2.54zM19 32.7a1.16 1.16 0 00.8.71 8.47 8.47 0 003.17.62l.7.17 1.85.45.7-2 .13-.37.15-.43-1.93.15a12.18 12.18 0 01-5-.15.58.58 0 00-.57.85z" fill="#ce9779"/><path d="M19 32.7a1.16 1.16 0 00.8.71 8.47 8.47 0 003.17.62l.7.17 2.54-1.56.63-.38h-.5c-2.84.15-5.34 1.26-7.34.44z" fill="#ce9779" opacity=".1"/><path d="M20.82 34l3.36 3.17 1 1 .24.22a5 5 0 004.36-3l2-1.4a2.53 2.53 0 00-.42-1.59c-.71-1.18-2.13-2.12-3-1.74a7.08 7.08 0 01-3.74 1.58 12.16 12.16 0 00-3.8 1.76z" fill="#ce9779"/><path d="M18 40.48a.92.92 0 001.2-.17l1.37-1.85 2.72-2.29-.17-.17-2.54 1.83c-.72 1.32-1.58 2.6-2.58 2.63a.05.05 0 000 .02z" fill="#ce9779" opacity=".1"/><path d="M19.54 41.34a.45.45 0 00.21.41.91.91 0 001.25-.27l1.16-2 2.22-2.33.23-.24-1.33-1.09L21 38.11z" fill="#ce9779"/><path d="M19.74 41.75a.91.91 0 001.26-.27l1.16-2 2.22-2.33c-.05-.06-2.39 1.85-2.39 1.85-.76 1.37-1.25 2.72-2.25 2.75z" fill="#ce9779" opacity=".1"/><path d="M21.64 41.48a.43.43 0 00.19.4.86.86 0 001.17-.21l1.17-1.81 1.3-1.45.65-.73.2-.22-1.41-1.12-.7.87-1 1.31z" fill="#ce9779"/><path d="M21.83 41.88a.86.86 0 001.17-.21l1.17-1.81 1.3-1.45a5 5 0 004.36-3l2-1.4a2.53 2.53 0 00-.42-1.59 2.2 2.2 0 01-1.7 2.33c-1.11 1.59-2.28 2.72-3.57 2.9a2.85 2.85 0 01-.44 0l-.45.48-1.35 1.45c-.76 1.42-1.08 2.27-2.07 2.3z" fill="#ce9779" opacity=".1"/></g></g></svg>