<svg xmlns="http://www.w3.org/2000/svg" viewBox="0 0 113.86 121.21"><defs><clipPath id="a"><path d="M113.38 16.95v6.07a1.74 1.74 0 01-1 1.42v-6.07a1.74 1.74 0 001-1.42z" fill="#333"/></clipPath><clipPath id="b"><path fill="none" d="M98.88 12.51L28.45 53.44 10.23 42.92 80.66 1.99l18.22 10.52z"/></clipPath><clipPath id="c"><path data-name="SVGID" d="M0 56.16v-6.07A3.5 3.5 0 002.08 53v6.07A3.5 3.5 0 010 56.16z" fill="#1c1c1c"/></clipPath><clipPath id="d"><path data-name="SVGID" d="M30.11 66.17v6.07a5.7 5.7 0 01-5.17 0v-6.07a5.7 5.7 0 005.17 0z" fill="#1c1c1c"/></clipPath></defs><g data-name="Layer 2"><g data-name="Layer 1"><path d="M99.31 80.13L95.83 78a.85.85 0 000-.23L86 50.62l11.63-17.8a.86.86 0 00-.19-1.15.73.73 0 00-1.07.2l-11 16.9-9.42-26a.75.75 0 00-1-.47.84.84 0 00-.44 1.06l9.75 27.04-9.49 14.53-3-1.89a.74.74 0 00-1 .3.86.86 0 00.23 1.12l27.55 17.09a.72.72 0 00.38.11.76.76 0 00.66-.41.86.86 0 00-.28-1.12zM84.93 52.24l8.84 24.45L76.1 65.75zM27.2 94.71a.73.73 0 01-.44-.15.86.86 0 01-.19-1.15l24.07-36.72a.73.73 0 011.07-.2.86.86 0 01.19 1.15L27.83 94.36a.75.75 0 01-.63.35z" fill="#333"/><path d="M47.28 107.53a.77.77 0 01-.71-.53L26.49 51.5a.84.84 0 01.44-1.06.75.75 0 011 .47L48 106.41a.84.84 0 01-.44 1.06.72.72 0 01-.28.06z" fill="#333"/><path d="M50.95 109.83a.72.72 0 01-.38-.11L23 92.63a.86.86 0 01-.28-1.12.74.74 0 011-.3l27.59 17.09a.86.86 0 01.28 1.12.76.76 0 01-.64.41z" fill="#333"/><g style="isolation:isolate"><path d="M113.38 16.95v6.07a1.74 1.74 0 01-1 1.42v-6.07a1.74 1.74 0 001-1.42z" fill="#333"/><g style="isolation:isolate" fill="#333" clip-path="url(#a)"><path d="M113.38 16.95v6.07a1.38 1.38 0 01-.37.91v-6.07a1.38 1.38 0 00.37-.91zM113 17.86v6.07a2.54 2.54 0 01-.64.51v-6.07a2.54 2.54 0 00.64-.51z"/></g><path fill="#1c1c1c" d="M92.66 8.71L80.47 1.67l-.02 6.07v-.09l18.22 10.52.02-6.07-6.03-3.39z"/><path fill="#333" d="M112.36 18.37l-.02 6.07-1.47.86.01-6.07 1.48-.86z"/></g><path fill="#fff" d="M98.62 12.52L28.2 53.45 9.98 42.93 80.4 2l18.22 10.52z" style="fill:#fff"/><g clip-path="url(#b)" fill="#1c1c1c"><path d="M9.66 42.1l.04-.07 19.87 11.45-.05.08zM12.07 40.71l.04-.08 19.87 11.45-.04.08zM14.5 39.32l.04-.08L34.4 50.7l-.04.08zM16.9 37.91l.05-.07 19.87 11.45-.04.08zM19.32 36.52l.04-.08 19.87 11.45-.04.08zM21.74 35.13l.05-.08L41.65 46.5l-.04.08zM24.16 33.72l.04-.08L44.07 45.1l-.04.08zM46.44 43.78L26.58 32.33l.04-.08L46.49 43.7l-.05.08zM28.99 30.93l.04-.08L48.9 42.3l-.05.08zM51.27 40.98L31.41 29.53l.05-.08L51.32 40.9l-.05.08zM53.69 39.59L33.83 28.14l.04-.08 19.87 11.45-.05.08zM36.24 26.73l.04-.07L56.15 38.1l-.05.08zM38.65 25.34l.05-.08 19.86 11.45-.04.08zM41.09 23.94l.04-.08L61 35.31l-.05.08zM43.58 22.55l.05-.08 19.86 11.46-.04.07zM46 21.15l.04-.08 19.87 11.45-.05.08zM48.41 19.74l.05-.08 19.86 11.45-.04.08zM70.7 29.8L50.84 18.35l.04-.08 19.86 11.45-.04.08zM73.11 28.41L53.25 16.96l.05-.08 19.86 11.45-.05.08zM55.66 15.56l.05-.08 19.86 11.45-.04.08zM58.15 13.92l.04-.08 19.95 11.47-.05.07zM60.5 12.77l.04-.08 19.87 11.45-.05.08zM62.91 11.36l.05-.07 19.86 11.45-.04.07zM65.32 9.97l.05-.08 19.87 11.45-.05.08zM67.75 8.57l.05-.08 19.86 11.45-.04.08zM70.16 7.17l.05-.08 19.87 11.45-.05.08zM72.59 5.78l.04-.08L92.5 17.16l-.05.07zM75 4.38l.05-.08L94.9 15.75l-.04.08zM77.42 2.97l.04-.08 19.87 11.45-.05.08z"/></g><path fill="#333" d="M110.88 19.23l-.01 6.07-70.43 40.93.02-6.07 70.42-40.93z" style="fill:#333"/><path data-name="SVGID" d="M0 56.16v-6.07A3.5 3.5 0 002.08 53v6.07A3.5 3.5 0 010 56.16z" fill="#1c1c1c"/><g clip-path="url(#c)"><path d="M2.08 53v6.07A3.5 3.5 0 010 56.16v-6.07A3.5 3.5 0 002.08 53z" fill="#1c1c1c" style="fill:#1c1c1c"/></g><path fill="#333" d="M40.46 60.15l-.02 6.08-10.35 6.01.02-6.07 10.35-6.02z"/><path fill="#1c1c1c" d="M24.94 66.17l-.02 6.07-22.86-13.2.02-6.07 22.86 13.2z"/><g style="isolation:isolate"><path data-name="SVGID" d="M30.11 66.17v6.07a5.7 5.7 0 01-5.17 0v-6.07a5.7 5.7 0 005.17 0z" fill="#1c1c1c"/><g style="isolation:isolate" clip-path="url(#d)"><path d="M30.11 66.17v6.07a4.83 4.83 0 01-1.81.57v-6.07a4.83 4.83 0 001.81-.57z" fill="#333"/><path d="M28.3 66.74v6.07a5.6 5.6 0 01-3.36-.57v-6.07a5.6 5.6 0 003.36.57z" fill="#1c1c1c"/></g></g><path d="M81.81 57.78l2.06-1.2a3.94 3.94 0 013.58 0l1 .6 1.07.61 23.31 13.46c1.33.77 1.34 2 0 2.79l-1.44.84-68.55 39.87-10.07 5.85a5.55 5.55 0 01-5 0l-22.3-12.85a5.31 5.31 0 01-1.06-.75 3.46 3.46 0 01-.65-.85c-.71-1.35-.15-2.87 1.68-3.94l7.79-4.52z" fill="#402e08" opacity=".3"/><path d="M112.35 15.5L88.41 1.69l-1.09-.63-1.07-.62a4 4 0 00-3.67 0l-2.11 1.23 2.89 1.67 1.1.66 8.21 4.74 6 3.48-2.63 1.53-10.91-6.34-1.19.69v.76l10.27 5.93-.43.25-10.93-6.3-1.19.69v.76l10.27 5.93-.41.24L80.59 10l-1.19.69v.76l10.27 5.93-2.9 1.68-10.93-6.25-1.19.69v.76l10.27 5.93-.41.24-10.92-6.31-1.19.69v.76l10.26 5.93-2.84 1.65-10.92-6.31-1.19.69v.76L78 24.23l-.43.25-10.96-6.31-1.19.69v.76l10.27 5.93-.41.24-10.93-6.31-1.19.69v.76l10.27 5.93-2.9 1.68-10.92-6.3-1.19.69v.76l10.27 5.93-.41.24-10.93-6.31-1.19.69V25l10.27 5.93-4.36 2.53-11-6.33-1.19.69v.76l10.31 6-.43.25-11-6.33-1.19.69v.76l10.31 6-.41.24-11-6.33-1.19.69v.76l10.31 6-2.9 1.68-11-6.33-1.19.69V34l10.31 6-.41.24-11-6.33-1.19.69v.76l10.31 6-2.68 1.54-11-6.33-1.19.69V38L44 44l-.43.25-11-6.33-1.19.69v.76l10.32 6-.41.24-11-6.33-1.19.69v.76l10.31 6-2.9 1.68L25.58 42l-1.19.69v.76l10.32 6-.41.24-11-6.33-1.16.64v.76l10.31 6-4.18 2.43-14.47-8.43-1.09-.63L10 42.59l-8 4.65C.17 48.33-.41 49.9.33 51.28a3.56 3.56 0 00.67.88 5.46 5.46 0 001.08.84l22.86 13.2a5.7 5.7 0 005.17 0l10.34-6 70.42-40.93 1.48-.86c1.37-.83 1.37-2.11 0-2.91z" fill="#414141"/></g></g></svg>