<svg xmlns="http://www.w3.org/2000/svg" viewBox="0 0 30.44 111.61"><g style="isolation:isolate"><g id="Layer_2" data-name="Layer 2"><g id="Layer_1-2" data-name="Layer 1"><path d="M22.21,110a15.27,15.27,0,0,1-13.84,0c-3.84-2.21-3.86-5.79,0-8a15.3,15.3,0,0,1,13.85,0C26,104.19,26,107.77,22.21,110Z" style="fill:#4c3927"/><rect x="5.48" y="105.02" width="19.58" height="1" style="fill:#4c3927"/><ellipse cx="15.27" cy="105.02" rx="5.65" ry="9.79" transform="translate(-89.83 119.71) rotate(-89.69)" style="fill:#594633"/><path d="M16,105.49a1.61,1.61,0,0,1-1.49,0v-89H16Z" style="fill:#4c3927"/><ellipse cx="15.22" cy="20.37" rx="8.13" ry="15.22" transform="translate(-5.21 35.5) rotate(-89.76)" style="fill:#94c6ce"/><polygon points="23.88 3.94 6.62 3.94 0.83 17.67 29.98 18.45 23.88 3.94" style="fill:#94c6ce"/><path d="M21.46,8A14.64,14.64,0,0,1,9.1,8c-3.43-1.83-3.44-4.79,0-6.6a14.64,14.64,0,0,1,12.36,0C24.85,3.21,24.86,6.16,21.46,8Z" style="fill:#b1d8d6"/><path d="M20.54,7.34A12.47,12.47,0,0,1,10,7.32C7.09,5.77,7.08,3.25,10,1.7a12.47,12.47,0,0,1,10.53,0C23.43,3.27,23.44,5.79,20.54,7.34Z" style="fill:#eadfd3"/><path d="M26,25.08c-5.93,3.17-15.56,3.16-21.52,0C1.74,23.59.27,21.71.05,19.79c-.28,2.26,1.19,4.58,4.44,6.31,6,3.18,15.59,3.2,21.52,0,3.2-1.71,4.64-4,4.38-6.23C30.16,21.79,28.71,23.64,26,25.08Z" style="fill:#85b0c5"/><path d="M13,4.6A13.09,13.09,0,0,1,22,2.8a5.32,5.32,0,0,0-1.45-1.08A12.47,12.47,0,0,0,10,1.7c-2.9,1.55-2.89,4.07,0,5.62a5.38,5.38,0,0,0,.55.24A5.56,5.56,0,0,1,13,4.6Z" style="fill:#d9c5b9"/><path d="M30,18.45h0L23.88,3.94a2.91,2.91,0,0,1-1,3,12.38,12.38,0,0,1,.42,3.18c0,7.74-7.18,14-16,14A17.94,17.94,0,0,1,.83,23,9.62,9.62,0,0,0,4.49,26.1c6,3.18,15.59,3.2,21.52,0C29.9,24.05,31.21,21.12,30,18.45Z" style="fill:#9cc4bc;opacity:0.2;mix-blend-mode:multiply"/></g></g></g></svg>