<svg xmlns="http://www.w3.org/2000/svg" viewBox="0 0 44.77 26.81"><g data-name="Layer 2"><g data-name="Layer 1"><path fill="#343332" d="M20.51 23.7l.96-1.67 5.1 2.93-.95 1.67z"/><path d="M44.77 14.53L25.11 25.82c0 .89.61 1.24 1.37.8l16.93-9.72a3 3 0 001.37-2.36z" fill="#343332"/><path fill="#585856" d="M0 11.21L19.61 0l25.16 14.53-19.66 11.29L0 11.21z"/><path fill="#dbdada" d="M27.59 21.22l-1.12.65 1.39.8 1.11-.65-1.38-.8zM23.16 19.96l1.38.79 1.12-.64-1.38-.8-1.12.65zM22.62 18.36L21.5 19l1.39.8 1.12-.65-1.39-.79zM20.97 17.4l-1.12.65 1.38.79 1.12-.64-1.38-.8zM19.31 16.44l-1.12.65 1.39.8 1.12-.65-1.39-.8zM14.88 15.18l1.39.8 1.12-.65-1.39-.8-1.12.65zM14.35 13.58l-1.12.64 1.38.8 1.12-.64-1.38-.8zM12.69 12.62l-1.12.65 1.39.79 1.11-.64-1.38-.8zM17.23 7.77l1.12-.64-1.38-.8-1.12.64 1.38.8zM15.58 6.82l1.12-.65-1.39-.8-1.11.65 1.38.8zM15.04 5.21l-1.38-.79-1.12.64 1.38.8 1.12-.65zM34.86 18.36l1.11-.64-1.38-.8-1.12.64 1.39.8zM33.2 17.41l1.12-.65-1.38-.8-1.12.65 1.38.8zM23.54 11.83l2.51 1.45.53.3.27.16.69.4.97.56 1.38.79 1.66.96 1.11-.65-4.53-2.61-.16-.1-3.31-1.91-1.12.65zM23.27 11.67l1.12-.64-1.39-.8-1.11.64 1.38.8zM21.61 10.71l1.12-.64-1.38-.8-1.12.65 1.38.79zM21.07 9.11l-1.38-.8-1.12.65 1.39.8 1.11-.65zM16.96 7.93l-1.38-.8-1.12.65 1.38.79 1.12-.64zM15.31 6.97l-1.39-.8-1.12.65 1.39.8 1.12-.65zM13.65 6.02l-1.38-.8-1.12.64 1.38.8 1.12-.64zM34.58 18.52l-1.38-.8-1.12.65 1.39.79 1.11-.64zM30.43 17.41l1.38.8 1.12-.65-1.38-.79-1.12.64zM28.77 16.45l1.38.8 1.12-.64-1.38-.8-1.12.64zM27.12 15.5l1.38.8 1.12-.65-1.39-.8-1.11.65zM25.46 14.54l1.38.8 1.12-.64-1.38-.8-1.12.64zM23.8 13.59l1.39.79 1.12-.64-1.39-.8-1.12.65zM22.15 12.63l1.38.8 1.12-.65-1.38-.8-1.12.65zM20.49 11.68l1.39.79 1.12-.64-1.39-.8-1.12.65zM18.84 10.72l1.38.8 1.12-.65-1.38-.8-1.12.65zM15.57 8.73l-1.38-.8-1.12.65 1.38.8 1.12-.65zM11.41 7.62l1.39.8 1.12-.64-1.39-.8-1.12.64zM12.26 6.82l-1.38-.8-1.12.65 1.38.79 1.12-.64zM33.19 19.32l-1.38-.8-1.12.65 1.39.8 1.11-.65zM29.04 18.21l1.38.8 1.12-.64-1.39-.8-1.11.64zM29.88 17.41l-1.38-.8-1.12.65 1.38.8 1.12-.65zM28.23 16.45l-1.39-.79-1.11.64 1.38.8 1.12-.65zM26.57 15.5l-1.38-.8-1.12.65 1.38.79 1.12-.64zM24.92 14.54l-1.39-.8-1.12.65 1.39.8 1.12-.65zM20.76 13.43l1.38.8 1.12-.64-1.38-.8-1.12.64zM21.61 12.63l-1.39-.8-1.12.65 1.39.8 1.12-.65z"/><path fill="#dbdada" d="M17.18 11.37l1.65.95 1.12-.64-1.66-.96 1.39-.8-1.38-.8-1.39.8-.45.26-.67.39.93.53.46.27zM13.06 10.18l1.12-.65-1.38-.79-1.12.64 1.38.8zM11.14 7.78l-1.12.65 1.39.79 1.12-.64-1.39-.8zM10.87 7.62l-1.38-.8-1.12.65 1.38.8 1.12-.65zM31.8 20.13l-1.38-.8-1.12.64 1.38.8 1.12-.64zM29.03 19.81l1.12-.64-1.39-.8-1.11.65 1.38.79zM28.49 18.21l-1.38-.8-1.12.65 1.38.8 1.12-.65zM25.45 16.46l-1.11.64 1.38.8 1.12-.64-1.39-.8zM25.18 16.3l-1.38-.8-1.12.65 1.38.8 1.12-.65zM23.52 15.35l-1.38-.8-1.12.64 1.39.8 1.11-.64zM20.75 15.04l1.12-.65-1.38-.8-1.12.65 1.38.8zM20.21 13.43l-1.38-.8-1.12.65 1.39.8 1.11-.65zM16.9 11.52l-.5-.29-.88-.51-1.12.65.88.51.51.29 1.65.95 1.12-.64-1.66-.96zM8.9 10.99l1.38.8 1.12-.65-1.38-.8-1.12.65zM8.36 9.39l-1.12.64 1.39.8 1.11-.65-1.38-.79zM6.71 8.43l-1.12.64 1.38.8 1.12-.64-1.38-.8z"/><path d="M32.8 9.33l-3.32 1.92a.6.6 0 01-.55 0l-5-2.89a.17.17 0 010-.32l3.32-1.92a.6.6 0 01.55 0l5 2.88a.17.17 0 010 .33z" fill="#878787"/></g></g></svg>