<svg xmlns="http://www.w3.org/2000/svg" viewBox="0 0 31.6 34.78"><g data-name="Layer 2"><g data-name="Layer 1"><path d="M6.43 19.79L1 0a2.82 2.82 0 00-1 2.5l4.74 17.16c.2.72 1 .78 1.68.13z" fill="#4b4b4a"/><path fill="#4b4b4a" d="M26.16 14.52l4.11 20.18L5.13 20.18 1.02 0l25.14 14.52z"/><path d="M31.6 34.32l-5.42-19.79a2.82 2.82 0 00-1 2.5l4.69 17.16c.2.72 1 .78 1.68.13z" fill="#343332"/><path d="M15.57 18.18c.14.85-.39 1.2-1.18.77a3.67 3.67 0 01-1.69-2.32c-.14-.85.39-1.2 1.18-.77a3.67 3.67 0 011.69 2.32z" fill="#dbdada"/></g></g></svg>