<svg xmlns="http://www.w3.org/2000/svg" viewBox="0 0 89.21 130.2"><g id="Layer_2" data-name="Layer 2"><g id="Layer_1-2" data-name="Layer 1"><ellipse cx="46.84" cy="121.46" rx="16.22" ry="8.75" style="fill:#786137"/><ellipse cx="46.74" cy="110.6" rx="16.12" ry="16.7" style="fill:#a4a7aa"/><rect x="30.52" y="98.27" width="32.34" height="13.57" style="fill:#a4a7aa"/><ellipse cx="45.19" cy="108.24" rx="12.73" ry="16.42" style="fill:#cccbc9"/><ellipse cx="46.69" cy="98.27" rx="16.17" ry="9.31" style="fill:#f9f6f0"/><ellipse cx="46.69" cy="98.08" rx="12.7" ry="7.13" style="fill:#6c5e53"/><path d="M89.21,65.87c-.57,2.92-21.84,9.72-24.25,0a4.71,4.71,0,0,1-.12-.54l-.06-.44c-1.32-12.33,22.1-.3,24.27.84l.15.08Z" style="fill:#adcc63"/><path d="M89.08,65.82l-11.9-.08" style="fill:#adcc63"/><path d="M89.05,65.78c-2.41.1-9.3.35-10.88.09a84.48,84.48,0,0,0-13.21,0,4.71,4.71,0,0,1-.12-.54l-.06-.44C63.46,52.61,86.88,64.64,89.05,65.78Z" style="fill:#98b751"/><path d="M52.86,49.9l-.23,0s-5.87-17.3,13.1-21.44l.48-.1S71.9,51.75,52.86,49.9Z" style="fill:#a6c45f"/><path d="M65.84,28.65s-11.63,13-13,21.25l-.23,0s-5.87-17.3,13.1-21.44Z" style="fill:#98b751"/><path d="M68.58,17.9c-4.81,7.09-7.51,6.91-13.06,4.54l-.26-.11S43.36,20,54.34,9C64.19-.86,69.75-.12,70.8.13A1,1,0,0,1,71,.19S73.46,10.7,68.58,17.9Z" style="fill:#a6c45f"/><path d="M70.75.12c-8,6.19-15.28,22.31-15.28,22.31l-.26-.11S43.31,20,54.29,9C64.14-.87,69.71-.13,70.75.12Z" style="fill:#8ba749"/><path d="M64.86,65.12C53.42,70.78,49.42,84.56,48,93.2c.7-12.64,2.5-37.6,6.09-45l-1.48-.73c-1.94,4-3.36,12.53-4.37,21.65.93-17.55,3-37.61,7.52-46.51l-1.48-.75c-5,9.77-7,31.89-7.88,50.21C45.06,59,42,43.18,35.33,28.87l-1.5.7c11,23.67,12.1,51.47,11.93,64.11-.17-1.3-.38-2.73-.62-4.22-1.67-14.94-6.3-40.32-18.72-47.3l-.81,1.44c8,4.51,12.66,17.68,15.32,30.24a10.73,10.73,0,0,0-3.64-4.73,4.3,4.3,0,0,0-4.16-.21l.68,1.51a2.65,2.65,0,0,1,2.63.11c3.35,2,5.6,10.59,7,18.49.79,6.75,1,11.51,1,11.65h.45v0l1-.07v0h.5l.77.06v-.06l.51,0v0l1.26,0c0-.26.69-26.15,16.67-34.05Z" style="fill:#93b856"/><path d="M36.47,69.89s-22.85-8.23-17.35,14.2C19.12,84.09,39.28,84,36.47,69.89Z" style="fill:#a8c867"/><path d="M25.24,75.7a7,7,0,0,1,1.61-2.84A8.37,8.37,0,0,1,29.54,71a13.33,13.33,0,0,1,3-1.1,12.1,12.1,0,0,1,3.17-.31v.13a13.36,13.36,0,0,0-3,.77A12.85,12.85,0,0,0,30,71.86a23.69,23.69,0,0,0-2.32,1.9c-.8.61-1.49,1.33-2.37,2Z" style="fill:#9ebd5e"/><path d="M26.58,44c.47,3-6.11,1.82-18.19.5C4.34,44,1.69,43,.59,41.94c-2.2-2.16,1.68-4.74,12.72-4.35,11.83.41,13.54,3.47,13.54,5.2A2.59,2.59,0,0,1,26.58,44Z" style="fill:#7fa24a"/><path d="M26.85,42.79A37.38,37.38,0,0,0,.59,41.94c-2.2-2.16,1.68-4.74,12.72-4.35C25.14,38,26.85,41.06,26.85,42.79Z" style="fill:#88a74d"/><path d="M36.41,29.37a13.14,13.14,0,0,1-1.6.58s-4.14.46-12-1.13a9.05,9.05,0,0,1-5.54-3.39c-2.33-3.34,0-7.34,12.49-4C43.56,25.12,39.23,28.15,36.41,29.37Z" style="fill:#87a54a"/><path d="M36.53,29.31l-.2-.06s-3.28-7.66-19-3.88c-2.33-3.34,0-7.34,12.48-4C43.68,25.06,39.36,28.09,36.53,29.31Z" style="fill:#97b54b"/></g></g></svg>