<svg xmlns="http://www.w3.org/2000/svg" xmlns:xlink="http://www.w3.org/1999/xlink" viewBox="0 0 62.93 45.42"><defs><linearGradient id="linear-gradient" x1="-108.51" y1="19.46" x2="-45.58" y2="19.46" gradientTransform="matrix(-1, 0, 0, 1, -45.58, 0)" gradientUnits="userSpaceOnUse"><stop offset="0" stop-color="#f5daa9"/><stop offset="1" stop-color="#581017"/></linearGradient></defs><g style="isolation:isolate"><g id="Layer_2" data-name="Layer 2"><g id="Layer_1-2" data-name="Layer 1"><polygon points="0.03 45.42 46.48 18.61 46.45 0 0.01 26.82 0.01 29.39 0.03 45.42" style="fill:#b28685;opacity:0.4;mix-blend-mode:multiply"/><polygon points="16.48 38.91 62.93 12.1 62.93 9.53 46.45 2.58 0.01 26.83 0.01 29.4 16.48 38.91" style="fill:#b19d86"/><polygon points="16.48 36.34 62.93 9.53 46.45 0.01 0.01 26.83 16.48 36.34" style="fill:#cfc0ad"/><path d="M29.34,26.93c-2.68,2-5.46,4.13-8.33,6-1.21.79-2.59,1.56-4.05,2.36L15.82,36l-.52-.3,1.41-.79c1.45-.8,2.83-1.56,4-2.34,2.86-1.89,5.63-4,8.31-6,1.33-1,2.67-2,4-3A205.47,205.47,0,0,1,59.24,7.39l.53.31A205.4,205.4,0,0,0,33.36,23.92C32,24.91,30.67,25.92,29.34,26.93Z" style="fill:#bca792"/><path d="M51,6.7c-2.39,1.65-4.89,3.25-7.3,4.81-1.21.77-2.42,1.55-3.62,2.34L36.62,16.1c-3.19,2.11-6.48,4.29-9.83,6.34l-.57.34c-3.2,2-6.52,4-10,5.67-1.52.74-3.15,1.46-4.73,2.15-.94.41-1.89.82-2.83,1.25l-.55-.32c1.06-.48,2.12-.94,3.17-1.4,1.57-.69,3.2-1.4,4.71-2.14,3.42-1.67,6.73-3.69,9.92-5.65l.57-.34c3.34-2.05,6.63-4.22,9.82-6.33l3.43-2.25c1.2-.79,2.41-1.57,3.62-2.35,2.41-1.55,4.9-3.15,7.29-4.79.51-.35,1-.76,1.58-1.19l1.29-1,.49.28c-.49.36-1,.74-1.46,1.11S51.5,6.34,51,6.7Z" style="fill:#bca792"/><path d="M37.7,8.21a128.21,128.21,0,0,1-14.83,9.34c-2.53,1.36-5.14,2.69-7.67,4C11,23.69,6.71,25.89,2.53,28.28L2,28c4.28-2.46,8.65-4.71,13-6.91,2.52-1.3,5.13-2.63,7.65-4A128.74,128.74,0,0,0,37.4,7.79c2-1.41,3.86-3,5.69-4.52,1.22-1,2.47-2,3.74-3l.48.28c-1.33,1-2.62,2.1-3.89,3.16C41.58,5.2,39.68,6.79,37.7,8.21Z" style="fill:#bca792"/><polygon points="46.45 0.01 62.93 9.53 62.93 12.1 16.48 38.91 0 29.4 0 26.83 46.45 0.01" style="opacity:0.4;mix-blend-mode:overlay;fill:url(#linear-gradient)"/></g></g></g></svg>