<svg xmlns="http://www.w3.org/2000/svg" viewBox="0 0 38.81 24.61"><g data-name="Layer 2"><g data-name="Layer 1"><path d="M35.64 9.09a1 1 0 00.42-1l-22.77 13v.45S16 21.38 25 16c9.36-5.6 8.77-5.64 10.64-6.91z" fill="#a2bdb2"/><path d="M13.29 21.13L.12 13.58v.27a.81.81 0 00.31.64 60.38 60.38 0 006 4.26 94.6 94.6 0 006.88 2.83z" fill="#6d857b"/><path d="M36 8a.47.47 0 010 .81l-4.56 2.59-.95.54-2.84 1.63-.59.34-1 .54-2.29 1.32-.44.25-.6.34-1.51.86-1.16.66-.31.18-6 3.43a1.06 1.06 0 01-1 0L.24 14.32a.46.46 0 01-.24-.41v-.67l4.92-2.41 6.9-4L22.37.81a1.06 1.06 0 011.05 0l.33.19 1.25.72 1.71 1 .34.2.5.29 1.06.61 1.57.9.51.29.68.39 2.47 1.42.89.51z" fill="#96a7a0"/><path d="M13.29 21.65a1.05 1.05 0 00.48-.12L36 8.78a.47.47 0 00.19-.41V7.7l-1-.15-21.9 12.52z" fill="#cbdad4"/><path d="M36 8.14l-3.61 2.07-.91.52-.95.55-2.88 1.62-.59.34-1 .55-2.25 1.31-.44.25-.6.35-.7.4-.82.47-1.15.66-.31.18-6 3.43a1 1 0 01-1 0L.24 13.64a.47.47 0 010-.81l4.68-2.68 4.47-2.57 2.42-1.39 6.75-3.87L22.37.14a1.07 1.07 0 011.05 0l.33.19L25 1l1.71 1 .34.19.5.29 1.06.61 1.56.9.51.29.68.39 2.47 1.42.89.51 1.22.7a.47.47 0 01.06.84z" fill="#eef7f4"/><path d="M35.21 8a.43.43 0 01-.15.14l-9.17 5.31-3.33 1.91-2.66 1.52-.31.18-6 3.43a.63.63 0 01-.61 0L1.07 13.57a.41.41 0 010-.71L22.59.52a.62.62 0 01.3-.08.58.58 0 01.31.08l3.63 2.08 1.56.89 2.76 1.58 3.9 2.24a.45.45 0 01.16.69z" fill="#dae7e2"/><path d="M35.21 8a.43.43 0 01-.15.14l-9.17 5.31-3.33 1.91-2.66 1.52-.31.18-6 3.43a.63.63 0 01-.61 0s.15-3.46 2.61-5S18.82 7.57 35.21 8z" fill="#d3e3dd"/><path d="M9 14a57.74 57.74 0 00-8.1-.93.41.41 0 00.18.5L13 20.45c.93-3.77-1.83-5.83-4-6.45z" fill="#e6f0ed"/><path d="M22.59.52L1.07 12.86a.4.4 0 00-.18.21 15.14 15.14 0 009.27-.68c4.42-2.03 12.13-2.9 12.43-11.87z" fill="#e1eae8"/><path d="M24.5 4.87C26.59 6.75 32.91 9 35.21 8a.45.45 0 00-.15-.64l-3.9-2.24-2.77-1.62-1.56-.9L23.2.52a.61.61 0 00-.61 0 5.13 5.13 0 001.91 4.35z" fill="#d1dfdb"/><path d="M7.74 12.94l13.48-7.73a3.78 3.78 0 013.76 0L27 6.4l1.81 1a.63.63 0 010 1.09L24.54 11l-3.34 1.92-2.66 1.52-.32.19-2.85 1.63a3.78 3.78 0 01-3.76 0L7.74 14a.63.63 0 010-1.06z" fill="#e5efec"/><path d="M37.58 9.9a.27.27 0 000-.09.21.21 0 00-.07-.07h-.07L26 16.36l-.15.09-.62.37-.15.09-10.24 6a.22.22 0 00-.07.1.47.47 0 000 .1.66.66 0 000 .09.8.8 0 000 .15.93.93 0 00.19.41l.08.07a.31.31 0 00.17.08h.07l10.1-6.39.15-.1.6-.38.15-.09 11.25-6.89a.15.15 0 000-.05.25.25 0 00.05-.11zM38.8 10.58a.27.27 0 000-.09.21.21 0 00-.07-.07h-.07L27.23 17l-.15.09-.62.37-.15.09-10.24 6a.22.22 0 00-.07.1.46.46 0 000 .1.65.65 0 000 .09.8.8 0 000 .16.93.93 0 00.19.41l.08.07a.31.31 0 00.17.08h.07l10.1-6.39.15-.1.6-.38.15-.09 11.25-6.89a.15.15 0 000-.05.26.26 0 00.04-.08z" fill="#62403f"/><path d="M20.56 8.07L18.3 6.76c-.64-.37-.56-1 .18-1.44l1.87-1.08a2.79 2.79 0 012.5-.1l2.26 1.3c.64.37.56 1-.18 1.44l-1 1.19a4.87 4.87 0 01-3.37 0z" style="mix-blend-mode:multiply" fill="#b9b9b9"/><path d="M26.79 6.07a.81.81 0 01-.26.52 1.57 1.57 0 01-.35.26L24.31 8a2.27 2.27 0 01-.45.2l-.23.06a2.73 2.73 0 01-1.69-.09l-.12-.06-2.26-1.3-.1-.06a.69.69 0 01-.33-.6.87.87 0 01.33-.59 1.69 1.69 0 01.28-.19l1.86-1.13a2.2 2.2 0 01.33-.15 3 3 0 011.7-.09l.23.07.24.11 2.26 1.3.17.12a.66.66 0 01.26.47z" fill="#403e3f"/><path fill="#403e3f" d="M26.79 2.6v3.5l-.26.06-2.67.59-.23.05-.46.1-1.23-.24h-.01l-2.48-.49-.33-.07V2.77l.33-.01 2.48-.05h.01l1.92-.04 2.67-.06.26-.01z"/><path d="M23.63 3.47v4.76a2.73 2.73 0 01-1.69-.09V3.47zM26.79 2.6v3.5a.81.81 0 01-.26.52v-4z" fill="#2f2c2d"/><path d="M19.45 2.76V6.7a.69.69 0 01-.33-.6V2.77z" fill="#1c1b1b"/><path d="M21.93 2.54v5.59l-.12-.06-2.26-1.3-.1-.06V2.54z" fill="#2b2a2a"/><path d="M21.81 4.62l-2.26-1.3c-.64-.37-.56-1 .18-1.44L21.6.79a2.79 2.79 0 012.5-.1L26.36 2c.64.37.56 1-.18 1.44l-1.87 1.07a2.79 2.79 0 01-2.5.11z" fill="#262324"/><path d="M22.89 4.53a1.88 1.88 0 01-.92-.2L19.72 3c-.1-.06-.26-.18-.26-.34s.17-.37.44-.53l1.87-1.08A2.56 2.56 0 0123 .77a1.88 1.88 0 01.92.2l2.26 1.3c.1.06.26.18.26.34s-.17.37-.44.53l-1.86 1.08a2.57 2.57 0 01-1.25.31z" fill="#fff"/><path d="M15.11 10.9l-2.26-1.3c-.64-.37-.56-1 .18-1.44l1.87-1.09A2.79 2.79 0 0117.4 7l2.26 1.3c.64.37.56 1-.18 1.44l-1 1.18a4.87 4.87 0 01-3.37-.02z" style="mix-blend-mode:multiply" fill="#b9b9b9"/><path d="M21.34 8.9a.81.81 0 01-.26.52 1.57 1.57 0 01-.35.26l-1.87 1.08a2.27 2.27 0 01-.45.2l-.23.06a2.73 2.73 0 01-1.69-.02l-.12-.06-2.27-1.35-.1-.06a.69.69 0 01-.33-.6.87.87 0 01.33-.58 1.7 1.7 0 01.28-.19l1.87-1.08a2.2 2.2 0 01.33-.15 3 3 0 011.69-.13l.23.07.24.11 2.26 1.3.17.12a.66.66 0 01.27.5z" fill="#403e3f"/><path fill="#403e3f" d="M21.34 5.43v3.5l-.26.06-2.67.59-.23.05-.45.1-1.24-.24-.01-.01L14.01 9l-.33-.07h-.01V5.6l.34-.01 2.47-.05h.01l1.92-.04 2.67-.06.26-.01z"/><path d="M18.18 6.3v4.76a2.73 2.73 0 01-1.69-.06V6.3zM21.34 5.43v3.5a.81.81 0 01-.26.52v-4z" fill="#2f2c2d"/><path d="M14 5.59v3.94a.69.69 0 01-.33-.6V5.6z" fill="#1c1b1b"/><path d="M16.48 5.37V11l-.12-.06-2.26-1.35-.1-.06V5.37z" fill="#2b2a2a"/><path d="M16.36 7.45L14.1 6.14c-.64-.37-.56-1 .18-1.44l1.87-1.08a2.79 2.79 0 012.5-.1l2.26 1.3c.64.37.56 1-.18 1.44l-1.87 1.08a2.79 2.79 0 01-2.5.11z" fill="#262324"/><path d="M17.45 7.36a1.88 1.88 0 01-.92-.2l-2.26-1.3c-.1-.06-.26-.18-.26-.34s.17-.37.44-.53l1.87-1.08a2.56 2.56 0 011.25-.31 1.88 1.88 0 01.92.2l2.26 1.3c.1.06.26.18.26.34s-.17.37-.44.53l-1.88 1.08a2.57 2.57 0 01-1.24.31z" fill="#fff"/><path d="M15.89 11.73a.81.81 0 01-.26.52 1.57 1.57 0 01-.35.26l-1.87 1.08a2.27 2.27 0 01-.45.2l-.23.06a2.73 2.73 0 01-1.73-.06l-.12-.06-2.26-1.3-.1-.06a.69.69 0 01-.33-.6.87.87 0 01.33-.59 1.69 1.69 0 01.31-.18l1.88-1.1a2.2 2.2 0 01.29-.15 3 3 0 011.69-.13l.23.07.24.11 2.26 1.3.17.12a.66.66 0 01.3.51z" fill="#403e3f"/><path fill="#403e3f" d="M15.89 8.26v3.5l-.26.06-2.67.59-.22.05-.46.1-1.24-.24h-.01l-2.47-.49-.33-.07h-.01V8.43h.34l2.47-.06h.01l1.92-.04 2.67-.06.26-.01z"/><path d="M12.74 9.13v4.76a2.73 2.73 0 01-1.74-.1V9.13zM15.89 8.26v3.5a.81.81 0 01-.26.52v-4z" fill="#2f2c2d"/><path d="M8.56 8.43v3.94a.69.69 0 01-.33-.6V8.43z" fill="#1c1b1b"/><path d="M11 8.2v5.59l-.12-.06-2.26-1.3-.1-.06V8.2z" fill="#2b2a2a"/><path d="M10.91 10.28L8.66 9C8 8.6 8.1 8 8.83 7.53l1.87-1.08a2.79 2.79 0 012.5-.1l2.26 1.3c.64.37.56 1-.18 1.44l-1.87 1.08a2.79 2.79 0 01-2.5.11z" fill="#262324"/><path d="M12 10.19a1.88 1.88 0 01-.92-.2L8.82 8.68c-.1-.06-.26-.18-.26-.34S8.73 8 9 7.82l1.87-1.08a2.56 2.56 0 011.25-.31 1.88 1.88 0 01.92.2l2.26 1.3c.1.06.26.18.26.34s-.17.37-.44.53l-1.88 1.08a2.57 2.57 0 01-1.24.31z" fill="#fff"/><path d="M32.14 9a.81.81 0 01-.26.52 1.57 1.57 0 01-.35.26l-1.87 1.08a2.27 2.27 0 01-.45.2l-.23.06a2.73 2.73 0 01-1.69-.09l-.13-.03-2.26-1.28-.1-.06a.69.69 0 01-.33-.6.87.87 0 01.33-.59 1.69 1.69 0 01.28-.19L27 7.2a2.2 2.2 0 01.28-.2A3 3 0 0129 6.91l.23.07.24.11 2.26 1.3.17.12a.66.66 0 01.24.49z" fill="#403e3f"/><path fill="#403e3f" d="M32.14 5.56v3.5l-.26.06-2.67.59-.22.05-.46.1-1.24-.24-.01-.01-2.47-.48-.33-.07V5.73l.33-.01 2.47-.05h.01l1.92-.04 2.67-.06.26-.01z"/><path d="M29 6.43v4.76a2.73 2.73 0 01-1.69-.09V6.43zM32.14 5.56v3.5a.81.81 0 01-.26.52v-4z" fill="#2f2c2d"/><path d="M24.81 5.72v3.94a.69.69 0 01-.33-.6V5.73z" fill="#1c1b1b"/><path d="M27.28 5.5v5.59l-.12-.09-2.26-1.28-.1-.06V5.5z" fill="#2b2a2a"/><path d="M27.16 7.57l-2.26-1.3c-.64-.37-.56-1 .18-1.44L27 3.75a2.79 2.79 0 012.5-.1l2.26 1.3c.64.37.56 1-.18 1.44l-1.92 1.08a2.79 2.79 0 01-2.5.1z" fill="#262324"/><path d="M28.25 7.49a1.88 1.88 0 01-.92-.2L25.07 6c-.1-.06-.26-.18-.26-.34s.17-.37.44-.53L27.12 4a2.56 2.56 0 011.25-.31 1.88 1.88 0 01.92.2l2.26 1.3c.1.06.26.18.26.34s-.17.37-.44.53l-1.88 1.12a2.57 2.57 0 01-1.24.31z" fill="#fff"/><path d="M26.69 11.86a.81.81 0 01-.26.52 1.56 1.56 0 01-.35.26l-1.87 1.08a2.27 2.27 0 01-.45.2l-.23.06a2.73 2.73 0 01-1.69-.09l-.12-.06-2.26-1.3-.1-.06a.69.69 0 01-.33-.6.87.87 0 01.33-.59 1.7 1.7 0 01.28-.19L21.51 10a2.2 2.2 0 01.33-.15 3 3 0 011.69-.13l.23.07.24.11 2.26 1.3.17.12a.66.66 0 01.26.54z" fill="#403e3f"/><path fill="#403e3f" d="M26.69 8.39v3.5l-.26.06-2.67.59-.22.05-.46.1-1.24-.24v-.01l-2.48-.48-.33-.07V8.56l.33-.01 2.48-.05 1.92-.04 2.67-.06.26-.01z"/><path d="M23.54 9.26V14a2.73 2.73 0 01-1.69-.09V9.26zM26.69 8.39v3.5a.81.81 0 01-.26.52v-4z" fill="#2f2c2d"/><path d="M19.36 8.55v3.94a.69.69 0 01-.33-.6V8.56z" fill="#1c1b1b"/><path d="M21.84 8.33v5.59l-.12-.06-2.26-1.3-.1-.06V8.33z" fill="#2b2a2a"/><path d="M21.72 10.41L19.46 9.1c-.64-.37-.56-1 .18-1.44l1.87-1.08a2.79 2.79 0 012.5-.1l2.26 1.3c.64.37.56 1-.18 1.44l-1.88 1.08a2.79 2.79 0 01-2.49.11z" fill="#262324"/><path d="M22.8 10.32a1.88 1.88 0 01-.92-.2l-2.26-1.3c-.1-.06-.26-.18-.26-.34s.17-.37.44-.53l1.87-1.08a2.56 2.56 0 011.25-.31 1.88 1.88 0 01.92.2l2.26 1.3c.1.06.26.18.26.34s-.17.37-.44.53L24 10a2.57 2.57 0 01-1.2.32z" fill="#fff"/><path d="M21.25 14.69a.81.81 0 01-.26.52 1.57 1.57 0 01-.35.26l-1.87 1.08a2.27 2.27 0 01-.45.2l-.23.06a2.73 2.73 0 01-1.69-.09l-.12-.06L14 15.38l-.1-.06a.69.69 0 01-.33-.6.87.87 0 01.33-.59 1.69 1.69 0 01.28-.19l1.87-1.08a2.2 2.2 0 01.33-.15 3 3 0 011.69-.13l.23.07.24.11 2.26 1.3.17.12a.66.66 0 01.28.51z" fill="#403e3f"/><path fill="#403e3f" d="M21.25 11.22v3.5l-.26.06-2.67.59-.23.05-.46.1-1.23-.24h-.01l-2.48-.49-.33-.07v-3.33l.33-.01 2.48-.05h.01l1.92-.04 2.67-.06.26-.01z"/><path d="M18.09 12.09v4.76a2.73 2.73 0 01-1.69-.09v-4.67zM21.25 11.22v3.5a.81.81 0 01-.26.52v-4z" fill="#2f2c2d"/><path d="M13.91 11.38v3.94a.69.69 0 01-.33-.6v-3.33z" fill="#1c1b1b"/><path d="M16.39 11.16v5.59l-.12-.06L14 15.38l-.1-.06v-4.16z" fill="#2b2a2a"/><path d="M16.27 13.24L14 11.93c-.64-.37-.56-1 .18-1.44l1.87-1.08a2.79 2.79 0 012.5-.1l2.26 1.3c.64.37.56 1-.18 1.44l-1.87 1.08a2.79 2.79 0 01-2.49.11z" fill="#262324"/><path d="M17.35 13.15a1.88 1.88 0 01-.92-.2l-2.26-1.3c-.1-.06-.26-.18-.26-.34s.17-.37.44-.53l1.88-1.08a2.56 2.56 0 011.25-.31 1.88 1.88 0 01.92.2l2.26 1.3c.1.06.26.18.26.34s-.17.37-.44.53l-1.88 1.08a2.57 2.57 0 01-1.25.31z" fill="#fff"/><path d="M24.33 2.33a.6.6 0 00-.81-.87.6.6 0 00-.18-.46.61.61 0 00-.86 0 .59.59 0 00-.15.35.6.6 0 00-.81.89l-.07.05a.61.61 0 10.89.83.59.59 0 00.16.3.6.6 0 001-.22.61.61 0 10.83-.89zm-2-.05a.61.61 0 00.14.2h.05-.07a.59.59 0 00-.15-.29zm1 .25h-.05.07a.58.58 0 00.06-.1.61.61 0 00-.1.16zM18.89 5.16a.6.6 0 00-.81-.87.6.6 0 00-.19-.46.61.61 0 00-.86 0 .59.59 0 00-.15.35.6.6 0 00-.81.89l-.07.09a.61.61 0 10.89.83.59.59 0 00.16.3.6.6 0 001-.22.61.61 0 00.83-.89zm-2-.05a.6.6 0 00.14.2h.05-.07a.59.59 0 00-.15-.29zm1 .25h-.05.07a.58.58 0 00.06-.1.61.61 0 00-.1.16zM13.44 8a.6.6 0 00-.81-.87.6.6 0 00-.19-.46.61.61 0 00-.86 0 .59.59 0 00-.15.35.6.6 0 00-.81.89l-.07.09a.61.61 0 10.89.83.59.59 0 00.16.3.6.6 0 001-.22.61.61 0 10.86-.91zm-1.84.23a.59.59 0 00-.18-.23h.05a.61.61 0 00.14.2h.05zm.89 0h-.05.07a.58.58 0 00.06-.1.61.61 0 00-.09.1zM29.71 5.3a.6.6 0 00-.81-.87.6.6 0 00-.21-.43.61.61 0 00-.86 0 .59.59 0 00-.15.35.6.6 0 00-.81.89l-.07.05a.61.61 0 10.89.83.59.59 0 00.16.3.6.6 0 001-.22.61.61 0 00.83-.89zm-2-.07a.61.61 0 00.14.2h.05-.07a.59.59 0 00-.15-.29zm1 .25h-.05.07a.58.58 0 00.06-.1.61.61 0 00-.1.16zM24.24 8.12a.6.6 0 00-.81-.87.6.6 0 00-.19-.46.61.61 0 00-.86 0 .59.59 0 00-.15.35.6.6 0 00-.81.89l-.07.05a.61.61 0 10.89.83.59.59 0 00.16.3.6.6 0 001-.22.61.61 0 10.83-.89zm-2-.05a.61.61 0 00.14.2h.05-.07a.59.59 0 00-.15-.29zm1 .25h-.05.07a.58.58 0 00.06-.1.61.61 0 00-.1.16zM18.79 10.95a.6.6 0 00-.81-.87.6.6 0 00-.19-.46.61.61 0 00-.86 0 .59.59 0 00-.15.35.6.6 0 00-.81.89l-.07.05a.61.61 0 10.89.83.59.59 0 00.21.26.6.6 0 001-.22.61.61 0 10.83-.89zm-2-.05a.61.61 0 00.14.2h.05-.07a.59.59 0 00-.15-.29zm1 .25h-.05.07a.58.58 0 00.06-.1.61.61 0 00-.1.16z" fill="#f6873a"/><path d="M15.28 17.52c.27-.88-.54-2.16-.59-2.3-.32-1.13-3.59.43-3.23.33s-3.07 1.45-2.57.53c-.29.53.58 1.1.95 1.22-2.11.84.09 1 1.14 1.28-1.11 1.19 1.25.57 1.91.49 1.1-.14 2.67-.06 3.07-1.42z" fill="#f7a08f"/><path d="M9.45 13.42a.79.79 0 01-.1-.2 3.32 3.32 0 00-.17-.46.89.89 0 00-.46-.33l-.46-.19a5.64 5.64 0 00-.92-.33 2.09 2.09 0 00-.66 0 3.34 3.34 0 01-.57 0 1.75 1.75 0 00-.53.05 7.39 7.39 0 00-1.08.62l-.12.06-.42.16a1 1 0 00-.52.46 1.34 1.34 0 00.1.85 2 2 0 00.17.29l.06.09a1 1 0 00.35.36c.16.08.34.12.49.21s.55.31.81.49l.11.08a4.89 4.89 0 00.53.33h.07a2.44 2.44 0 001.3.32.44.44 0 000 .05 4.18 4.18 0 00.47-.12 1.19 1.19 0 00.26-.24 3.27 3.27 0 01.8-.37 2.3 2.3 0 00.39-.12l.13-.08a1.1 1.1 0 00.4-.94 2.19 2.19 0 00-.43-1.04z" fill="#c2d558"/></g></g></svg>