<svg xmlns="http://www.w3.org/2000/svg" viewBox="0 0 111.85 123.27"><g id="Layer_2" data-name="Layer 2"><g id="Layer_1-2" data-name="Layer 1"><polygon points="0.33 80.5 74.4 123.27 111.44 101.88 37.47 59.11 0.33 80.5" style="fill:#3d3012;opacity:0.4"/><line x1="73.37" y1="108.15" x2="105.82" y2="89.35" style="fill:none;stroke:#c1bcba;stroke-miterlimit:10;stroke-width:2.07034421869051px"/><line x1="4.96" y1="70.87" x2="36.3" y2="52.71" style="fill:none;stroke:#c1bcba;stroke-miterlimit:10;stroke-width:2.07034421869051px"/><polygon points="67.58 73.83 73.2 122.54 75.66 122.54 71.62 76.4 67.58 73.83" style="fill:#c08467"/><polygon points="0.33 80.5 11.54 41.95 14.78 43.85 3.31 81.25 0.33 80.5" style="fill:#c08467"/><polygon points="95.06 65.23 109.36 101.88 111.44 101.88 97.91 63.7 95.06 65.23" style="fill:#b3714f"/><polygon points="74.94 77.99 74.94 64.46 111.86 43.07 111.86 56.44 74.94 77.99" style="fill:#8d6e61"/><polygon points="74.94 64.46 0 21.69 37.37 0 111.86 43.07 74.94 64.46" style="fill:#e6cdb4"/><rect x="36.67" y="52.31" width="2.21" height="8.02" style="fill:#946f64"/><polygon points="0 21.69 0 35.05 74.94 77.99 74.94 64.46 0 21.69" style="fill:#d5cdcf"/><polygon points="1.68 24.67 1.68 34.07 73.13 75 73.13 65.48 1.68 24.67" style="fill:#f6f1e7"/></g></g></svg>