<svg xmlns="http://www.w3.org/2000/svg" viewBox="0 0 500 449.09"><g id="Layer_2" data-name="Layer 2"><g id="Layer_1-2" data-name="Layer 1"><polygon points="232.58 158.04 495.46 309.82 270.89 439.43 7.54 287.42 232.58 158.04" style="fill:#fff"/><polygon points="9.26 288.7 231.48 160.39 231.48 10.69 9.26 138.98 9.26 288.7" style="fill:#a9c3d5"/><polygon points="231.48 160.39 490.74 310.08 490.71 160.39 231.48 10.69 231.48 160.39" style="fill:#7d939b"/><polygon points="231.48 166.31 485.65 313.07 268.52 438.38 13.89 291.41 231.48 166.31" style="fill:#ebbf66"/><polygon points="0 133.66 9.26 139 9.26 288.7 268.52 438.4 268.52 449.09 0 294.05 0 133.66" style="fill:#c3c0c1"/><polygon points="268.52 438.38 268.52 449.09 500 315.13 500 155.04 490.71 160.39 490.74 309.79 268.52 438.38" style="fill:#b8adb1"/><polygon points="0 133.66 9.26 139 231.48 10.69 490.71 160.39 500 155.04 231.48 0 0 133.66" style="fill:#e9eae9"/></g></g></svg>