<svg xmlns="http://www.w3.org/2000/svg" viewBox="0 0 52.44 113.11"><g data-name="Layer 2"><g data-name="Layer 1"><path fill="#87c2ea" d="M49.13 50.24L14.45 30.21V6.87l34.68 20.04v23.33zM49.13 92.86L14.45 72.84V38.17L49.13 58.2v34.66z"/><path fill="#fff" opacity=".2" d="M47.62 57.33L25.45 79.19l-8.33-4.82 21.7-22.13 8.8 5.09zM34.18 49.57L14.45 69.43v-7.82L29.4 46.8l4.78 2.77zM42.75 23.22L27.53 37.73l-6.17-3.57L36.4 19.6l6.35 3.62zM49.13 26.91v5.86L38.68 44.2l-7.4-4.28 14.53-14.94 3.32 1.93z"/><path d="M52.44 26.07L7.3 0v76.72l45.14 26.07zm-3.31 24.17l-34.68-20V6.87l34.68 20zm0 42.62l-34.68-20V38.17l34.68 20z" fill="#7a441c"/><path fill="#3c2517" d="M14.45 30.21l34.68 20.03v4.44L10.6 32.43V4.65l3.85 2.22v23.34zM14.45 72.84l34.68 20.02v4.44L10.6 75.06V35.95l3.85 2.22v34.67z"/><path d="M52.44 106.48v6.63l-5.74-3.31c1.91-1.15 3.82-2.17 5.74-3.32z" fill="#010101" opacity=".3"/><path fill="#a8aaad" d="M52.44 106.48l-7.3 4.21V107l7.3-4.21v3.69z"/><path fill="#939598" d="M45.14 110.69L0 84.62v-3.69L45.14 107v3.69z"/><path fill="#fff" d="M52.44 102.79l-7.3 4.21L0 80.93l7.29-4.21 45.15 26.07z"/></g></g></svg>